<svg class="rich-terminal" viewBox="0 0 1482 928.4" xmlns="http://www.w3.org/2000/svg">
    <!-- Generated with Rich https://www.textualize.io -->
    <style>

    @font-face {
        font-family: "Fira Code";
        src: local("FiraCode-Regular"),
                url("https://cdnjs.cloudflare.com/ajax/libs/firacode/6.2.0/woff2/FiraCode-Regular.woff2") format("woff2"),
                url("https://cdnjs.cloudflare.com/ajax/libs/firacode/6.2.0/woff/FiraCode-Regular.woff") format("woff");
        font-style: normal;
        font-weight: 400;
    }
    @font-face {
        font-family: "Fira Code";
        src: local("FiraCode-Bold"),
                url("https://cdnjs.cloudflare.com/ajax/libs/firacode/6.2.0/woff2/FiraCode-Bold.woff2") format("woff2"),
                url("https://cdnjs.cloudflare.com/ajax/libs/firacode/6.2.0/woff/FiraCode-Bold.woff") format("woff");
        font-style: bold;
        font-weight: 700;
    }

    .terminal-3023300521-matrix {
        font-family: Fira Code, monospace;
        font-size: 20px;
        line-height: 24.4px;
        font-variant-east-asian: full-width;
    }

    .terminal-3023300521-title {
        font-size: 18px;
        font-weight: bold;
        font-family: arial;
    }

    .terminal-3023300521-r1 { fill: #121212 }
.terminal-3023300521-r2 { fill: #0178d4 }
.terminal-3023300521-r3 { fill: #c5c8c6 }
.terminal-3023300521-r4 { fill: #e0e0e0 }
.terminal-3023300521-r5 { fill: #e0e0e0;font-weight: bold }
.terminal-3023300521-r6 { fill: #999999 }
.terminal-3023300521-r7 { fill: #00ffff;font-weight: bold }
.terminal-3023300521-r8 { fill: #ffff00;font-weight: bold }
.terminal-3023300521-r9 { fill: #ff0000;font-weight: bold }
.terminal-3023300521-r10 { fill: #ff0000 }
.terminal-3023300521-r11 { fill: #ffa62b;font-weight: bold }
.terminal-3023300521-r12 { fill: #495259 }
    </style>

    <defs>
    <clipPath id="terminal-3023300521-clip-terminal">
      <rect x="0" y="0" width="1463.0" height="877.4" />
    </clipPath>
    <clipPath id="terminal-3023300521-line-0">
    <rect x="0" y="1.5" width="1464" height="24.65"/>
            </clipPath>
<clipPath id="terminal-3023300521-line-1">
    <rect x="0" y="25.9" width="1464" height="24.65"/>
            </clipPath>
<clipPath id="terminal-3023300521-line-2">
    <rect x="0" y="50.3" width="1464" height="24.65"/>
            </clipPath>
<clipPath id="terminal-3023300521-line-3">
    <rect x="0" y="74.7" width="1464" height="24.65"/>
            </clipPath>
<clipPath id="terminal-3023300521-line-4">
    <rect x="0" y="99.1" width="1464" height="24.65"/>
            </clipPath>
<clipPath id="terminal-3023300521-line-5">
    <rect x="0" y="123.5" width="1464" height="24.65"/>
            </clipPath>
<clipPath id="terminal-3023300521-line-6">
    <rect x="0" y="147.9" width="1464" height="24.65"/>
            </clipPath>
<clipPath id="terminal-3023300521-line-7">
    <rect x="0" y="172.3" width="1464" height="24.65"/>
            </clipPath>
<clipPath id="terminal-3023300521-line-8">
    <rect x="0" y="196.7" width="1464" height="24.65"/>
            </clipPath>
<clipPath id="terminal-3023300521-line-9">
    <rect x="0" y="221.1" width="1464" height="24.65"/>
            </clipPath>
<clipPath id="terminal-3023300521-line-10">
    <rect x="0" y="245.5" width="1464" height="24.65"/>
            </clipPath>
<clipPath id="terminal-3023300521-line-11">
    <rect x="0" y="269.9" width="1464" height="24.65"/>
            </clipPath>
<clipPath id="terminal-3023300521-line-12">
    <rect x="0" y="294.3" width="1464" height="24.65"/>
            </clipPath>
<clipPath id="terminal-3023300521-line-13">
    <rect x="0" y="318.7" width="1464" height="24.65"/>
            </clipPath>
<clipPath id="terminal-3023300521-line-14">
    <rect x="0" y="343.1" width="1464" height="24.65"/>
            </clipPath>
<clipPath id="terminal-3023300521-line-15">
    <rect x="0" y="367.5" width="1464" height="24.65"/>
            </clipPath>
<clipPath id="terminal-3023300521-line-16">
    <rect x="0" y="391.9" width="1464" height="24.65"/>
            </clipPath>
<clipPath id="terminal-3023300521-line-17">
    <rect x="0" y="416.3" width="1464" height="24.65"/>
            </clipPath>
<clipPath id="terminal-3023300521-line-18">
    <rect x="0" y="440.7" width="1464" height="24.65"/>
            </clipPath>
<clipPath id="terminal-3023300521-line-19">
    <rect x="0" y="465.1" width="1464" height="24.65"/>
            </clipPath>
<clipPath id="terminal-3023300521-line-20">
    <rect x="0" y="489.5" width="1464" height="24.65"/>
            </clipPath>
<clipPath id="terminal-3023300521-line-21">
    <rect x="0" y="513.9" width="1464" height="24.65"/>
            </clipPath>
<clipPath id="terminal-3023300521-line-22">
    <rect x="0" y="538.3" width="1464" height="24.65"/>
            </clipPath>
<clipPath id="terminal-3023300521-line-23">
    <rect x="0" y="562.7" width="1464" height="24.65"/>
            </clipPath>
<clipPath id="terminal-3023300521-line-24">
    <rect x="0" y="587.1" width="1464" height="24.65"/>
            </clipPath>
<clipPath id="terminal-3023300521-line-25">
    <rect x="0" y="611.5" width="1464" height="24.65"/>
            </clipPath>
<clipPath id="terminal-3023300521-line-26">
    <rect x="0" y="635.9" width="1464" height="24.65"/>
            </clipPath>
<clipPath id="terminal-3023300521-line-27">
    <rect x="0" y="660.3" width="1464" height="24.65"/>
            </clipPath>
<clipPath id="terminal-3023300521-line-28">
    <rect x="0" y="684.7" width="1464" height="24.65"/>
            </clipPath>
<clipPath id="terminal-3023300521-line-29">
    <rect x="0" y="709.1" width="1464" height="24.65"/>
            </clipPath>
<clipPath id="terminal-3023300521-line-30">
    <rect x="0" y="733.5" width="1464" height="24.65"/>
            </clipPath>
<clipPath id="terminal-3023300521-line-31">
    <rect x="0" y="757.9" width="1464" height="24.65"/>
            </clipPath>
<clipPath id="terminal-3023300521-line-32">
    <rect x="0" y="782.3" width="1464" height="24.65"/>
            </clipPath>
<clipPath id="terminal-3023300521-line-33">
    <rect x="0" y="806.7" width="1464" height="24.65"/>
            </clipPath>
<clipPath id="terminal-3023300521-line-34">
    <rect x="0" y="831.1" width="1464" height="24.65"/>
            </clipPath>
    </defs>

    <rect fill="#292929" stroke="rgba(255,255,255,0.35)" stroke-width="1" x="1" y="1" width="1480" height="926.4" rx="8"/><text class="terminal-3023300521-title" fill="#c5c8c6" text-anchor="middle" x="740" y="27">crossview</text>
            <g transform="translate(26,22)">
            <circle cx="0" cy="0" r="7" fill="#ff5f57"/>
            <circle cx="22" cy="0" r="7" fill="#febc2e"/>
            <circle cx="44" cy="0" r="7" fill="#28c840"/>
            </g>
        
    <g transform="translate(9, 41)" clip-path="url(#terminal-3023300521-clip-terminal)">
    <rect fill="#0178d4" x="0" y="1.5" width="12.2" height="24.65" shape-rendering="crispEdges"/><rect fill="#272727" x="12.2" y="1.5" width="85.4" height="24.65" shape-rendering="crispEdges"/><rect fill="#272727" x="97.6" y="1.5" width="1244.4" height="24.65" shape-rendering="crispEdges"/><rect fill="#272727" x="1342" y="1.5" width="109.8" height="24.65" shape-rendering="crispEdges"/><rect fill="#121212" x="1451.8" y="1.5" width="12.2" height="24.65" shape-rendering="crispEdges"/><rect fill="#0178d4" x="0" y="25.9" width="12.2" height="24.65" shape-rendering="crispEdges"/><rect fill="#272727" x="12.2" y="25.9" width="24.4" height="24.65" shape-rendering="crispEdges"/><rect fill="#2d4e74" x="36.6" y="25.9" width="73.2" height="24.65" shape-rendering="crispEdges"/><rect fill="#e0e0e0" x="109.8" y="25.9" width="12.2" height="24.65" shape-rendering="crispEdges"/><rect fill="#272727" x="122" y="25.9" width="1305.4" height="24.65" shape-rendering="crispEdges"/><rect fill="#272727" x="1427.4" y="25.9" width="24.4" height="24.65" shape-rendering="crispEdges"/><rect fill="#121212" x="1451.8" y="25.9" width="12.2" height="24.65" shape-rendering="crispEdges"/><rect fill="#0178d4" x="0" y="50.3" width="12.2" height="24.65" shape-rendering="crispEdges"/><rect fill="#272727" x="12.2" y="50.3" width="1439.6" height="24.65" shape-rendering="crispEdges"/><rect fill="#121212" x="1451.8" y="50.3" width="12.2" height="24.65" shape-rendering="crispEdges"/><rect fill="#1e1e1e" x="0" y="74.7" width="24.4" height="24.65" shape-rendering="crispEdges"/><rect fill="#1e1e1e" x="24.4" y="74.7" width="195.2" height="24.65" shape-rendering="crispEdges"/><rect fill="#1e1e1e" x="219.6" y="74.7" width="390.4" height="24.65" shape-rendering="crispEdges"/><rect fill="#121212" x="610" y="74.7" width="854" height="24.65" shape-rendering="crispEdges"/><rect fill="#1e1e1e" x="0" y="99.1" width="24.4" height="24.65" shape-rendering="crispEdges"/><rect fill="#1e1e1e" x="24.4" y="99.1" width="280.6" height="24.65" shape-rendering="crispEdges"/><rect fill="#1e1e1e" x="305" y="99.1" width="305" height="24.65" shape-rendering="crispEdges"/><rect fill="#121212" x="610" y="99.1" width="24.4" height="24.65" shape-rendering="crispEdges"/><rect fill="#121212" x="634.4" y="99.1" width="73.2" height="24.65" shape-rendering="crispEdges"/><rect fill="#121212" x="707.6" y="99.1" width="24.4" height="24.65" shape-rendering="crispEdges"/><rect fill="#121212" x="732" y="99.1" width="170.8" height="24.65" shape-rendering="crispEdges"/><rect fill="#121212" x="902.8" y="99.1" width="536.8" height="24.65" shape-rendering="crispEdges"/><rect fill="#121212" x="1439.6" y="99.1" width="24.4" height="24.65" shape-rendering="crispEdges"/><rect fill="#1e1e1e" x="0" y="123.5" width="24.4" height="24.65" shape-rendering="crispEdges"/><rect fill="#1e1e1e" x="24.4" y="123.5" width="231.8" height="24.65" shape-rendering="crispEdges"/><rect fill="#1e1e1e" x="256.2" y="123.5" width="353.8" height="24.65" shape-rendering="crispEdges"/><rect fill="#121212" x="610" y="123.5" width="24.4" height="24.65" shape-rendering="crispEdges"/><rect fill="#121212" x="634.4" y="123.5" width="805.2" height="24.65" shape-rendering="crispEdges"/><rect fill="#121212" x="1439.6" y="123.5" width="24.4" height="24.65" shape-rendering="crispEdges"/><rect fill="#1e1e1e" x="0" y="147.9" width="24.4" height="24.65" shape-rendering="crispEdges"/><rect fill="#1e1e1e" x="24.4" y="147.9" width="305" height="24.65" shape-rendering="crispEdges"/><rect fill="#1e1e1e" x="329.4" y="147.9" width="280.6" height="24.65" shape-rendering="crispEdges"/><rect fill="#121212" x="610" y="147.9" width="24.4" height="24.65" shape-rendering="crispEdges"/><rect fill="#121212" x="634.4" y="147.9" width="207.4" height="24.65" shape-rendering="crispEdges"/><rect fill="#121212" x="841.8" y="147.9" width="597.8" height="24.65" shape-rendering="crispEdges"/><rect fill="#121212" x="1439.6" y="147.9" width="24.4" height="24.65" shape-rendering="crispEdges"/><rect fill="#1e1e1e" x="0" y="172.3" width="24.4" height="24.65" shape-rendering="crispEdges"/><rect fill="#1e1e1e" x="24.4" y="172.3" width="207.4" height="24.65" shape-rendering="crispEdges"/><rect fill="#1e1e1e" x="231.8" y="172.3" width="378.2" height="24.65" shape-rendering="crispEdges"/><rect fill="#121212" x="610" y="172.3" width="24.4" height="24.65" shape-rendering="crispEdges"/><rect fill="#121212" x="634.4" y="172.3" width="0" height="24.65" shape-rendering="crispEdges"/><rect fill="#121212" x="634.4" y="172.3" width="805.2" height="24.65" shape-rendering="crispEdges"/><rect fill="#121212" x="1439.6" y="172.3" width="24.4" height="24.65" shape-rendering="crispEdges"/><rect fill="#1e1e1e" x="0" y="196.7" width="24.4" height="24.65" shape-rendering="crispEdges"/><rect fill="#1e1e1e" x="24.4" y="196.7" width="195.2" height="24.65" shape-rendering="crispEdges"/><rect fill="#1e1e1e" x="219.6" y="196.7" width="390.4" height="24.65" shape-rendering="crispEdges"/><rect fill="#121212" x="610" y="196.7" width="24.4" height="24.65" shape-rendering="crispEdges"/><rect fill="#121212" x="634.4" y="196.7" width="707.6" height="24.65" shape-rendering="crispEdges"/><rect fill="#121212" x="1342" y="196.7" width="97.6" height="24.65" shape-rendering="crispEdges"/><rect fill="#121212" x="1439.6" y="196.7" width="24.4" height="24.65" shape-rendering="crispEdges"/><rect fill="#1e1e1e" x="0" y="221.1" width="610" height="24.65" shape-rendering="crispEdges"/><rect fill="#121212" x="610" y="221.1" width="24.4" height="24.65" shape-rendering="crispEdges"/><rect fill="#121212" x="634.4" y="221.1" width="756.4" height="24.65" shape-rendering="crispEdges"/><rect fill="#121212" x="1390.8" y="221.1" width="48.8" height="24.65" shape-rendering="crispEdges"/><rect fill="#121212" x="1439.6" y="221.1" width="24.4" height="24.65" shape-rendering="crispEdges"/><rect fill="#1e1e1e" x="0" y="245.5" width="610" height="24.65" shape-rendering="crispEdges"/><rect fill="#121212" x="610" y="245.5" width="24.4" height="24.65" shape-rendering="crispEdges"/><rect fill="#121212" x="634.4" y="245.5" width="768.6" height="24.65" shape-rendering="crispEdges"/><rect fill="#121212" x="1403" y="245.5" width="36.6" height="24.65" shape-rendering="crispEdges"/><rect fill="#121212" x="1439.6" y="245.5" width="24.4" height="24.65" shape-rendering="crispEdges"/><rect fill="#1e1e1e" x="0" y="269.9" width="610" height="24.65" shape-rendering="crispEdges"/><rect fill="#121212" x="610" y="269.9" width="24.4" height="24.65" shape-rendering="crispEdges"/><rect fill="#121212" x="634.4" y="269.9" width="768.6" height="24.65" shape-rendering="crispEdges"/><rect fill="#121212" x="1403" y="269.9" width="36.6" height="24.65" shape-rendering="crispEdges"/><rect fill="#121212" x="1439.6" y="269.9" width="24.4" height="24.65" shape-rendering="crispEdges"/><rect fill="#1e1e1e" x="0" y="294.3" width="610" height="24.65" shape-rendering="crispEdges"/><rect fill="#121212" x="610" y="294.3" width="24.4" height="24.65" shape-rendering="crispEdges"/><rect fill="#121212" x="634.4" y="294.3" width="805.2" height="24.65" shape-rendering="crispEdges"/><rect fill="#121212" x="1439.6" y="294.3" width="24.4" height="24.65" shape-rendering="crispEdges"/><rect fill="#1e1e1e" x="0" y="318.7" width="610" height="24.65" shape-rendering="crispEdges"/><rect fill="#121212" x="610" y="318.7" width="24.4" height="24.65" shape-rendering="crispEdges"/><rect fill="#121212" x="634.4" y="318.7" width="768.6" height="24.65" shape-rendering="crispEdges"/><rect fill="#121212" x="1403" y="318.7" width="36.6" height="24.65" shape-rendering="crispEdges"/><rect fill="#121212" x="1439.6" y="318.7" width="24.4" height="24.65" shape-rendering="crispEdges"/><rect fill="#1e1e1e" x="0" y="343.1" width="610" height="24.65" shape-rendering="crispEdges"/><rect fill="#121212" x="610" y="343.1" width="24.4" height="24.65" shape-rendering="crispEdges"/><rect fill="#121212" x="634.4" y="343.1" width="768.6" height="24.65" shape-rendering="crispEdges"/><rect fill="#121212" x="1403" y="343.1" width="36.6" height="24.65" shape-rendering="crispEdges"/><rect fill="#121212" x="1439.6" y="343.1" width="24.4" height="24.65" shape-rendering="crispEdges"/><rect fill="#1e1e1e" x="0" y="367.5" width="610" height="24.65" shape-rendering="crispEdges"/><rect fill="#121212" x="610" y="367.5" width="24.4" height="24.65" shape-rendering="crispEdges"/><rect fill="#121212" x="634.4" y="367.5" width="122" height="24.65" shape-rendering="crispEdges"/><rect fill="#121212" x="756.4" y="367.5" width="683.2" height="24.65" shape-rendering="crispEdges"/><rect fill="#121212" x="1439.6" y="367.5" width="24.4" height="24.65" shape-rendering="crispEdges"/><rect fill="#1e1e1e" x="0" y="391.9" width="610" height="24.65" shape-rendering="crispEdges"/><rect fill="#121212" x="610" y="391.9" width="24.4" height="24.65" shape-rendering="crispEdges"/><rect fill="#121212" x="634.4" y="391.9" width="0" height="24.65" shape-rendering="crispEdges"/><rect fill="#121212" x="634.4" y="391.9" width="805.2" height="24.65" shape-rendering="crispEdges"/><rect fill="#121212" x="1439.6" y="391.9" width="24.4" height="24.65" shape-rendering="crispEdges"/><rect fill="#1e1e1e" x="0" y="416.3" width="610" height="24.65" shape-rendering="crispEdges"/><rect fill="#121212" x="610" y="416.3" width="24.4" height="24.65" shape-rendering="crispEdges"/><rect fill="#121212" x="634.4" y="416.3" width="219.6" height="24.65" shape-rendering="crispEdges"/><rect fill="#121212" x="854" y="416.3" width="585.6" height="24.65" shape-rendering="crispEdges"/><rect fill="#121212" x="1439.6" y="416.3" width="24.4" height="24.65" shape-rendering="crispEdges"/><rect fill="#1e1e1e" x="0" y="440.7" width="610" height="24.65" shape-rendering="crispEdges"/><rect fill="#121212" x="610" y="440.7" width="24.4" height="24.65" shape-rendering="crispEdges"/><rect fill="#121212" x="634.4" y="440.7" width="317.2" height="24.65" shape-rendering="crispEdges"/><rect fill="#121212" x="951.6" y="440.7" width="488" height="24.65" shape-rendering="crispEdges"/><rect fill="#121212" x="1439.6" y="440.7" width="24.4" height="24.65" shape-rendering="crispEdges"/><rect fill="#1e1e1e" x="0" y="465.1" width="610" height="24.65" shape-rendering="crispEdges"/><rect fill="#121212" x="610" y="465.1" width="24.4" height="24.65" shape-rendering="crispEdges"/><rect fill="#121212" x="634.4" y="465.1" width="756.4" height="24.65" shape-rendering="crispEdges"/><rect fill="#121212" x="1390.8" y="465.1" width="48.8" height="24.65" shape-rendering="crispEdges"/><rect fill="#121212" x="1439.6" y="465.1" width="24.4" height="24.65" shape-rendering="crispEdges"/><rect fill="#1e1e1e" x="0" y="489.5" width="610" height="24.65" shape-rendering="crispEdges"/><rect fill="#121212" x="610" y="489.5" width="24.4" height="24.65" shape-rendering="crispEdges"/><rect fill="#121212" x="634.4" y="489.5" width="85.4" height="24.65" shape-rendering="crispEdges"/><rect fill="#121212" x="719.8" y="489.5" width="719.8" height="24.65" shape-rendering="crispEdges"/><rect fill="#121212" x="1439.6" y="489.5" width="24.4" height="24.65" shape-rendering="crispEdges"/><rect fill="#1e1e1e" x="0" y="513.9" width="610" height="24.65" shape-rendering="crispEdges"/><rect fill="#121212" x="610" y="513.9" width="24.4" height="24.65" shape-rendering="crispEdges"/><rect fill="#121212" x="634.4" y="513.9" width="0" height="24.65" shape-rendering="crispEdges"/><rect fill="#121212" x="634.4" y="513.9" width="805.2" height="24.65" shape-rendering="crispEdges"/><rect fill="#121212" x="1439.6" y="513.9" width="24.4" height="24.65" shape-rendering="crispEdges"/><rect fill="#1e1e1e" x="0" y="538.3" width="610" height="24.65" shape-rendering="crispEdges"/><rect fill="#121212" x="610" y="538.3" width="24.4" height="24.65" shape-rendering="crispEdges"/><rect fill="#121212" x="634.4" y="538.3" width="207.4" height="24.65" shape-rendering="crispEdges"/><rect fill="#121212" x="841.8" y="538.3" width="597.8" height="24.65" shape-rendering="crispEdges"/><rect fill="#121212" x="1439.6" y="538.3" width="24.4" height="24.65" shape-rendering="crispEdges"/><rect fill="#1e1e1e" x="0" y="562.7" width="610" height="24.65" shape-rendering="crispEdges"/><rect fill="#121212" x="610" y="562.7" width="24.4" height="24.65" shape-rendering="crispEdges"/><rect fill="#121212" x="634.4" y="562.7" width="475.8" height="24.65" shape-rendering="crispEdges"/><rect fill="#121212" x="1110.2" y="562.7" width="329.4" height="24.65" shape-rendering="crispEdges"/><rect fill="#121212" x="1439.6" y="562.7" width="24.4" height="24.65" shape-rendering="crispEdges"/><rect fill="#1e1e1e" x="0" y="587.1" width="610" height="24.65" shape-rendering="crispEdges"/><rect fill="#121212" x="610" y="587.1" width="24.4" height="24.65" shape-rendering="crispEdges"/><rect fill="#121212" x="634.4" y="587.1" width="475.8" height="24.65" shape-rendering="crispEdges"/><rect fill="#121212" x="1110.2" y="587.1" width="329.4" height="24.65" shape-rendering="crispEdges"/><rect fill="#121212" x="1439.6" y="587.1" width="24.4" height="24.65" shape-rendering="crispEdges"/><rect fill="#1e1e1e" x="0" y="611.5" width="610" height="24.65" shape-rendering="crispEdges"/><rect fill="#121212" x="610" y="611.5" width="24.4" height="24.65" shape-rendering="crispEdges"/><rect fill="#121212" x="634.4" y="611.5" width="475.8" height="24.65" shape-rendering="crispEdges"/><rect fill="#121212" x="1110.2" y="611.5" width="329.4" height="24.65" shape-rendering="crispEdges"/><rect fill="#121212" x="1439.6" y="611.5" width="24.4" height="24.65" shape-rendering="crispEdges"/><rect fill="#1e1e1e" x="0" y="635.9" width="610" height="24.65" shape-rendering="crispEdges"/><rect fill="#121212" x="610" y="635.9" width="24.4" height="24.65" shape-rendering="crispEdges"/><rect fill="#121212" x="634.4" y="635.9" width="475.8" height="24.65" shape-rendering="crispEdges"/><rect fill="#121212" x="1110.2" y="635.9" width="329.4" height="24.65" shape-rendering="crispEdges"/><rect fill="#121212" x="1439.6" y="635.9" width="24.4" height="24.65" shape-rendering="crispEdges"/><rect fill="#1e1e1e" x="0" y="660.3" width="610" height="24.65" shape-rendering="crispEdges"/><rect fill="#121212" x="610" y="660.3" width="24.4" height="24.65" shape-rendering="crispEdges"/><rect fill="#121212" x="634.4" y="660.3" width="475.8" height="24.65" shape-rendering="crispEdges"/><rect fill="#121212" x="1110.2" y="660.3" width="329.4" height="24.65" shape-rendering="crispEdges"/><rect fill="#121212" x="1439.6" y="660.3" width="24.4" height="24.65" shape-rendering="crispEdges"/><rect fill="#1e1e1e" x="0" y="684.7" width="610" height="24.65" shape-rendering="crispEdges"/><rect fill="#121212" x="610" y="684.7" width="24.4" height="24.65" shape-rendering="crispEdges"/><rect fill="#121212" x="634.4" y="684.7" width="475.8" height="24.65" shape-rendering="crispEdges"/><rect fill="#121212" x="1110.2" y="684.7" width="329.4" height="24.65" shape-rendering="crispEdges"/><rect fill="#121212" x="1439.6" y="684.7" width="24.4" height="24.65" shape-rendering="crispEdges"/><rect fill="#1e1e1e" x="0" y="709.1" width="610" height="24.65" shape-rendering="crispEdges"/><rect fill="#121212" x="610" y="709.1" width="24.4" height="24.65" shape-rendering="crispEdges"/><rect fill="#121212" x="634.4" y="709.1" width="0" height="24.65" shape-rendering="crispEdges"/><rect fill="#121212" x="634.4" y="709.1" width="805.2" height="24.65" shape-rendering="crispEdges"/><rect fill="#121212" x="1439.6" y="709.1" width="24.4" height="24.65" shape-rendering="crispEdges"/><rect fill="#1e1e1e" x="0" y="733.5" width="610" height="24.65" shape-rendering="crispEdges"/><rect fill="#121212" x="610" y="733.5" width="24.4" height="24.65" shape-rendering="crispEdges"/><rect fill="#121212" x="634.4" y="733.5" width="390.4" height="24.65" shape-rendering="crispEdges"/><rect fill="#121212" x="1024.8" y="733.5" width="414.8" height="24.65" shape-rendering="crispEdges"/><rect fill="#121212" x="1439.6" y="733.5" width="24.4" height="24.65" shape-rendering="crispEdges"/><rect fill="#1e1e1e" x="0" y="757.9" width="610" height="24.65" shape-rendering="crispEdges"/><rect fill="#121212" x="610" y="757.9" width="24.4" height="24.65" shape-rendering="crispEdges"/><rect fill="#121212" x="634.4" y="757.9" width="24.4" height="24.65" shape-rendering="crispEdges"/><rect fill="#121212" x="658.8" y="757.9" width="366" height="24.65" shape-rendering="crispEdges"/><rect fill="#121212" x="1024.8" y="757.9" width="414.8" height="24.65" shape-rendering="crispEdges"/><rect fill="#121212" x="1439.6" y="757.9" width="24.4" height="24.65" shape-rendering="crispEdges"/><rect fill="#1e1e1e" x="0" y="782.3" width="610" height="24.65" shape-rendering="crispEdges"/><rect fill="#121212" x="610" y="782.3" width="24.4" height="24.65" shape-rendering="crispEdges"/><rect fill="#121212" x="634.4" y="782.3" width="536.8" height="24.65" shape-rendering="crispEdges"/><rect fill="#121212" x="1171.2" y="782.3" width="268.4" height="24.65" shape-rendering="crispEdges"/><rect fill="#121212" x="1439.6" y="782.3" width="24.4" height="24.65" shape-rendering="crispEdges"/><rect fill="#1e1e1e" x="0" y="806.7" width="610" height="24.65" shape-rendering="crispEdges"/><rect fill="#121212" x="610" y="806.7" width="24.4" height="24.65" shape-rendering="crispEdges"/><rect fill="#121212" x="634.4" y="806.7" width="622.2" height="24.65" shape-rendering="crispEdges"/><rect fill="#121212" x="1256.6" y="806.7" width="183" height="24.65" shape-rendering="crispEdges"/><rect fill="#121212" x="1439.6" y="806.7" width="24.4" height="24.65" shape-rendering="crispEdges"/><rect fill="#1e1e1e" x="0" y="831.1" width="610" height="24.65" shape-rendering="crispEdges"/><rect fill="#121212" x="610" y="831.1" width="24.4" height="24.65" shape-rendering="crispEdges"/><rect fill="#121212" x="634.4" y="831.1" width="427" height="24.65" shape-rendering="crispEdges"/><rect fill="#121212" x="1061.4" y="831.1" width="378.2" height="24.65" shape-rendering="crispEdges"/><rect fill="#121212" x="1439.6" y="831.1" width="24.4" height="24.65" shape-rendering="crispEdges"/><rect fill="#242f38" x="0" y="855.5" width="36.6" height="24.65" shape-rendering="crispEdges"/><rect fill="#242f38" x="36.6" y="855.5" width="85.4" height="24.65" shape-rendering="crispEdges"/><rect fill="#242f38" x="122" y="855.5" width="61" height="24.65" shape-rendering="crispEdges"/><rect fill="#242f38" x="183" y="855.5" width="61" height="24.65" shape-rendering="crispEdges"/><rect fill="#242f38" x="244" y="855.5" width="1073.6" height="24.65" shape-rendering="crispEdges"/><rect fill="#242f38" x="1317.6" y="855.5" width="12.2" height="24.65" shape-rendering="crispEdges"/><rect fill="#242f38" x="1329.8" y="855.5" width="24.4" height="24.65" shape-rendering="crispEdges"/><rect fill="#242f38" x="1354.2" y="855.5" width="97.6" height="24.65" shape-rendering="crispEdges"/><rect fill="#242f38" x="1451.8" y="855.5" width="12.2" height="24.65" shape-rendering="crispEdges"/>
    <g class="terminal-3023300521-matrix">
    <text class="terminal-3023300521-r1" x="0" y="20" textLength="12.2" clip-path="url(#terminal-3023300521-line-0)">▊</text><text class="terminal-3023300521-r2" x="12.2" y="20" textLength="85.4" clip-path="url(#terminal-3023300521-line-0)">▔▔▔▔▔▔▔</text><text class="terminal-3023300521-r2" x="97.6" y="20" textLength="1244.4" clip-path="url(#terminal-3023300521-line-0)">▔▔▔▔▔▔▔▔▔▔▔▔▔▔▔▔▔▔▔▔▔▔▔▔▔▔▔▔▔▔▔▔▔▔▔▔▔▔▔▔▔▔▔▔▔▔▔▔▔▔▔▔▔▔▔▔▔▔▔▔▔▔▔▔▔▔▔▔▔▔▔▔▔▔▔▔▔▔▔▔▔▔▔▔▔▔▔▔▔▔▔▔▔▔▔▔▔▔▔▔▔▔</text><text class="terminal-3023300521-r2" x="1342" y="20" textLength="109.8" clip-path="url(#terminal-3023300521-line-0)">▔▔▔▔▔▔▔▔▔</text><text class="terminal-3023300521-r2" x="1451.8" y="20" textLength="12.2" clip-path="url(#terminal-3023300521-line-0)">▎</text><text class="terminal-3023300521-r3" x="1464" y="20" textLength="12.2" clip-path="url(#terminal-3023300521-line-0)">
</text><text class="terminal-3023300521-r1" x="0" y="44.4" textLength="12.2" clip-path="url(#terminal-3023300521-line-1)">▊</text><text class="terminal-3023300521-r4" x="36.6" y="44.4" textLength="73.2" clip-path="url(#terminal-3023300521-line-1)">CWE-89</text><text class="terminal-3023300521-r2" x="1451.8" y="44.4" textLength="12.2" clip-path="url(#terminal-3023300521-line-1)">▎</text><text class="terminal-3023300521-r3" x="1464" y="44.4" textLength="12.2" clip-path="url(#terminal-3023300521-line-1)">
</text><text class="terminal-3023300521-r1" x="0" y="68.8" textLength="12.2" clip-path="url(#terminal-3023300521-line-2)">▊</text><text class="terminal-3023300521-r2" x="12.2" y="68.8" textLength="1439.6" clip-path="url(#terminal-3023300521-line-2)">▁▁▁▁▁▁▁▁▁▁▁▁▁▁▁▁▁▁▁▁▁▁▁▁▁▁▁▁▁▁▁▁▁▁▁▁▁▁▁▁▁▁▁▁▁▁▁▁▁▁▁▁▁▁▁▁▁▁▁▁▁▁▁▁▁▁▁▁▁▁▁▁▁▁▁▁▁▁▁▁▁▁▁▁▁▁▁▁▁▁▁▁▁▁▁▁▁▁▁▁▁▁▁▁▁▁▁▁▁▁▁▁▁▁▁▁▁▁</text><text class="terminal-3023300521-r2" x="1451.8" y="68.8" textLength="12.2" clip-path="url(#terminal-3023300521-line-2)">▎</text><text class="terminal-3023300521-r3" x="1464" y="68.8" textLength="12.2" clip-path="url(#terminal-3023300521-line-2)">
</text><text class="terminal-3023300521-r4" x="0" y="93.2" textLength="24.4" clip-path="url(#terminal-3023300521-line-3)">▶&#160;</text><text class="terminal-3023300521-r4" x="24.4" y="93.2" textLength="195.2" clip-path="url(#terminal-3023300521-line-3)">CWE&#160;—&#160;Weaknesses</text><text class="terminal-3023300521-r3" x="1464" y="93.2" textLength="12.2" clip-path="url(#terminal-3023300521-line-3)">
</text><text class="terminal-3023300521-r4" x="0" y="117.6" textLength="24.4" clip-path="url(#terminal-3023300521-line-4)">▶&#160;</text><text class="terminal-3023300521-r4" x="24.4" y="117.6" textLength="280.6" clip-path="url(#terminal-3023300521-line-4)">CAPEC&#160;—&#160;Attack&#160;Patterns</text><text class="terminal-3023300521-r5" x="634.4" y="117.6" textLength="73.2" clip-path="url(#terminal-3023300521-line-4)">CWE-89</text><text class="terminal-3023300521-r6" x="732" y="117.6" textLength="170.8" clip-path="url(#terminal-3023300521-line-4)">(cwe/weakness)</text><text class="terminal-3023300521-r3" x="1464" y="117.6" textLength="12.2" clip-path="url(#terminal-3023300521-line-4)">
</text><text class="terminal-3023300521-r4" x="0" y="142" textLength="24.4" clip-path="url(#terminal-3023300521-line-5)">▶&#160;</text><text class="terminal-3023300521-r4" x="24.4" y="142" textLength="231.8" clip-path="url(#terminal-3023300521-line-5)">ATT&amp;CK&#160;—&#160;Techniques</text><text class="terminal-3023300521-r7" x="634.4" y="142" textLength="805.2" clip-path="url(#terminal-3023300521-line-5)">Improper&#160;Neutralization&#160;of&#160;Special&#160;Elements&#160;used&#160;in&#160;an&#160;SQL&#160;Command</text><text class="terminal-3023300521-r3" x="1464" y="142" textLength="12.2" clip-path="url(#terminal-3023300521-line-5)">
</text><text class="terminal-3023300521-r4" x="0" y="166.4" textLength="24.4" clip-path="url(#terminal-3023300521-line-6)">▶&#160;</text><text class="terminal-3023300521-r4" x="24.4" y="166.4" textLength="305" clip-path="url(#terminal-3023300521-line-6)">ATLAS&#160;—&#160;AI/ML&#160;Adversarial</text><text class="terminal-3023300521-r7" x="634.4" y="166.4" textLength="207.4" clip-path="url(#terminal-3023300521-line-6)">(&#x27;SQL&#160;Injection&#x27;)</text><text class="terminal-3023300521-r3" x="1464" y="166.4" textLength="12.2" clip-path="url(#terminal-3023300521-line-6)">
</text><text class="terminal-3023300521-r4" x="0" y="190.8" textLength="24.4" clip-path="url(#terminal-3023300521-line-7)">▶&#160;</text><text class="terminal-3023300521-r4" x="24.4" y="190.8" textLength="207.4" clip-path="url(#terminal-3023300521-line-7)">D3FEND&#160;—&#160;Defenses</text><text class="terminal-3023300521-r3" x="1464" y="190.8" textLength="12.2" clip-path="url(#terminal-3023300521-line-7)">
</text><text class="terminal-3023300521-r4" x="0" y="215.2" textLength="24.4" clip-path="url(#terminal-3023300521-line-8)">▶&#160;</text><text class="terminal-3023300521-r4" x="24.4" y="215.2" textLength="195.2" clip-path="url(#terminal-3023300521-line-8)">UKC&#160;—&#160;Kill&#160;Chain</text><text class="terminal-3023300521-r4" x="634.4" y="215.2" textLength="707.6" clip-path="url(#terminal-3023300521-line-8)">The&#160;product&#160;constructs&#160;all&#160;or&#160;part&#160;of&#160;an&#160;SQL&#160;command&#160;using</text><text class="terminal-3023300521-r3" x="1464" y="215.2" textLength="12.2" clip-path="url(#terminal-3023300521-line-8)">
</text><text class="terminal-3023300521-r4" x="634.4" y="239.6" textLength="756.4" clip-path="url(#terminal-3023300521-line-9)">externally-influenced&#160;input&#160;from&#160;an&#160;upstream&#160;component,&#160;but&#160;it</text><text class="terminal-3023300521-r3" x="1464" y="239.6" textLength="12.2" clip-path="url(#terminal-3023300521-line-9)">
</text><text class="terminal-3023300521-r4" x="634.4" y="264" textLength="768.6" clip-path="url(#terminal-3023300521-line-10)">does&#160;not&#160;neutralize&#160;or&#160;incorrectly&#160;neutralizes&#160;special&#160;elements</text><text class="terminal-3023300521-r3" x="1464" y="264" textLength="12.2" clip-path="url(#terminal-3023300521-line-10)">
</text><text class="terminal-3023300521-r4" x="634.4" y="288.4" textLength="768.6" clip-path="url(#terminal-3023300521-line-11)">that&#160;could&#160;modify&#160;the&#160;intended&#160;SQL&#160;command&#160;when&#160;it&#160;is&#160;sent&#160;to&#160;a</text><text class="terminal-3023300521-r3" x="1464" y="288.4" textLength="12.2" clip-path="url(#terminal-3023300521-line-11)">
</text><text class="terminal-3023300521-r4" x="634.4" y="312.8" textLength="805.2" clip-path="url(#terminal-3023300521-line-12)">downstream&#160;component.&#160;Without&#160;sufficient&#160;removal&#160;or&#160;quoting&#160;of&#160;SQL</text><text class="terminal-3023300521-r3" x="1464" y="312.8" textLength="12.2" clip-path="url(#terminal-3023300521-line-12)">
</text><text class="terminal-3023300521-r4" x="634.4" y="337.2" textLength="768.6" clip-path="url(#terminal-3023300521-line-13)">syntax&#160;in&#160;user-controllable&#160;inputs,&#160;the&#160;generated&#160;SQL&#160;query&#160;can</text><text class="terminal-3023300521-r3" x="1464" y="337.2" textLength="12.2" clip-path="url(#terminal-3023300521-line-13)">
</text><text class="terminal-3023300521-r4" x="634.4" y="361.6" textLength="768.6" clip-path="url(#terminal-3023300521-line-14)">cause&#160;those&#160;inputs&#160;to&#160;be&#160;interpreted&#160;as&#160;SQL&#160;instead&#160;of&#160;ordinary</text><text class="terminal-3023300521-r3" x="1464" y="361.6" textLength="12.2" clip-path="url(#terminal-3023300521-line-14)">
</text><text class="terminal-3023300521-r4" x="634.4" y="386" textLength="122" clip-path="url(#terminal-3023300521-line-15)">user&#160;data.</text><text class="terminal-3023300521-r3" x="1464" y="386" textLength="12.2" clip-path="url(#terminal-3023300521-line-15)">
</text><text class="terminal-3023300521-r3" x="1464" y="410.4" textLength="12.2" clip-path="url(#terminal-3023300521-line-16)">
</text><text class="terminal-3023300521-r8" x="634.4" y="434.8" textLength="219.6" clip-path="url(#terminal-3023300521-line-17)">Cross-source&#160;chain</text><text class="terminal-3023300521-r3" x="1464" y="434.8" textLength="12.2" clip-path="url(#terminal-3023300521-line-17)">
</text><text class="terminal-3023300521-r4" x="634.4" y="459.2" textLength="317.2" clip-path="url(#terminal-3023300521-line-18)">&#160;&#160;parents:&#160;CWE-74,&#160;CWE-943</text><text class="terminal-3023300521-r3" x="1464" y="459.2" textLength="12.2" clip-path="url(#terminal-3023300521-line-18)">
</text><text class="terminal-3023300521-r4" x="634.4" y="483.6" textLength="756.4" clip-path="url(#terminal-3023300521-line-19)">&#160;&#160;CAPEC:&#160;CAPEC-108,&#160;CAPEC-109,&#160;CAPEC-110,&#160;CAPEC-470,&#160;CAPEC-66,</text><text class="terminal-3023300521-r3" x="1464" y="483.6" textLength="12.2" clip-path="url(#terminal-3023300521-line-19)">
</text><text class="terminal-3023300521-r4" x="634.4" y="508" textLength="85.4" clip-path="url(#terminal-3023300521-line-20)">CAPEC-7</text><text class="terminal-3023300521-r3" x="1464" y="508" textLength="12.2" clip-path="url(#terminal-3023300521-line-20)">
</text><text class="terminal-3023300521-r3" x="1464" y="532.4" textLength="12.2" clip-path="url(#terminal-3023300521-line-21)">
</text><text class="terminal-3023300521-r9" x="634.4" y="556.8" textLength="207.4" clip-path="url(#terminal-3023300521-line-22)">Top&#160;NVD&#160;CVEs&#160;(10)</text><text class="terminal-3023300521-r3" x="1464" y="556.8" textLength="12.2" clip-path="url(#terminal-3023300521-line-22)">
</text><text class="terminal-3023300521-r4" x="634.4" y="581.2" textLength="475.8" clip-path="url(#terminal-3023300521-line-23)">&#160;&#160;CVE-2025-10878&#160;&#160;CVSS=10.0&#160;&#160;(CRITICAL)</text><text class="terminal-3023300521-r3" x="1464" y="581.2" textLength="12.2" clip-path="url(#terminal-3023300521-line-23)">
</text><text class="terminal-3023300521-r4" x="634.4" y="605.6" textLength="475.8" clip-path="url(#terminal-3023300521-line-24)">&#160;&#160;CVE-2025-57792&#160;&#160;CVSS=10.0&#160;&#160;(CRITICAL)</text><text class="terminal-3023300521-r3" x="1464" y="605.6" textLength="12.2" clip-path="url(#terminal-3023300521-line-24)">
</text><text class="terminal-3023300521-r4" x="634.4" y="630" textLength="475.8" clip-path="url(#terminal-3023300521-line-25)">&#160;&#160;CVE-2025-52694&#160;&#160;CVSS=10.0&#160;&#160;(CRITICAL)</text><text class="terminal-3023300521-r3" x="1464" y="630" textLength="12.2" clip-path="url(#terminal-3023300521-line-25)">
</text><text class="terminal-3023300521-r4" x="634.4" y="654.4" textLength="475.8" clip-path="url(#terminal-3023300521-line-26)">&#160;&#160;CVE-2025-65091&#160;&#160;CVSS=10.0&#160;&#160;(CRITICAL)</text><text class="terminal-3023300521-r3" x="1464" y="654.4" textLength="12.2" clip-path="url(#terminal-3023300521-line-26)">
</text><text class="terminal-3023300521-r4" x="634.4" y="678.8" textLength="475.8" clip-path="url(#terminal-3023300521-line-27)">&#160;&#160;CVE-2024-57521&#160;&#160;CVSS=10.0&#160;&#160;(CRITICAL)</text><text class="terminal-3023300521-r3" x="1464" y="678.8" textLength="12.2" clip-path="url(#terminal-3023300521-line-27)">
</text><text class="terminal-3023300521-r4" x="634.4" y="703.2" textLength="475.8" clip-path="url(#terminal-3023300521-line-28)">&#160;&#160;CVE-2025-63531&#160;&#160;CVSS=10.0&#160;&#160;(CRITICAL)</text><text class="terminal-3023300521-r3" x="1464" y="703.2" textLength="12.2" clip-path="url(#terminal-3023300521-line-28)">
</text><text class="terminal-3023300521-r3" x="1464" y="727.6" textLength="12.2" clip-path="url(#terminal-3023300521-line-29)">
</text><text class="terminal-3023300521-r9" x="634.4" y="752" textLength="390.4" clip-path="url(#terminal-3023300521-line-30)">CISA&#160;KEV&#160;(26&#160;actively&#160;exploited)</text><text class="terminal-3023300521-r3" x="1464" y="752" textLength="12.2" clip-path="url(#terminal-3023300521-line-30)">
</text><text class="terminal-3023300521-r10" x="658.8" y="776.4" textLength="366" clip-path="url(#terminal-3023300521-line-31)">⚠&#160;10&#160;with&#160;known&#160;ransomware&#160;use</text><text class="terminal-3023300521-r3" x="1464" y="776.4" textLength="12.2" clip-path="url(#terminal-3023300521-line-31)">
</text><text class="terminal-3023300521-r4" x="634.4" y="800.8" textLength="536.8" clip-path="url(#terminal-3023300521-line-32)">&#160;&#160;CVE-2026-21643&#160;&#160;Fortinet&#160;/&#160;FortiClient&#160;EMS</text><text class="terminal-3023300521-r3" x="1464" y="800.8" textLength="12.2" clip-path="url(#terminal-3023300521-line-32)">
</text><text class="terminal-3023300521-r4" x="634.4" y="825.2" textLength="622.2" clip-path="url(#terminal-3023300521-line-33)">&#160;&#160;CVE-2024-43468&#160;&#160;Microsoft&#160;/&#160;Configuration&#160;Manager</text><text class="terminal-3023300521-r3" x="1464" y="825.2" textLength="12.2" clip-path="url(#terminal-3023300521-line-33)">
</text><text class="terminal-3023300521-r4" x="634.4" y="849.6" textLength="427" clip-path="url(#terminal-3023300521-line-34)">&#160;&#160;CVE-2025-57819&#160;&#160;Sangoma&#160;/&#160;FreePBX</text><text class="terminal-3023300521-r3" x="1464" y="849.6" textLength="12.2" clip-path="url(#terminal-3023300521-line-34)">
</text><text class="terminal-3023300521-r11" x="0" y="874" textLength="36.6" clip-path="url(#terminal-3023300521-line-35)">&#160;/&#160;</text><text class="terminal-3023300521-r4" x="36.6" y="874" textLength="85.4" clip-path="url(#terminal-3023300521-line-35)">Search&#160;</text><text class="terminal-3023300521-r11" x="122" y="874" textLength="61" clip-path="url(#terminal-3023300521-line-35)">&#160;esc&#160;</text><text class="terminal-3023300521-r4" x="183" y="874" textLength="61" clip-path="url(#terminal-3023300521-line-35)">Tree&#160;</text><text class="terminal-3023300521-r12" x="1317.6" y="874" textLength="12.2" clip-path="url(#terminal-3023300521-line-35)">▏</text><text class="terminal-3023300521-r11" x="1329.8" y="874" textLength="24.4" clip-path="url(#terminal-3023300521-line-35)">^p</text><text class="terminal-3023300521-r4" x="1354.2" y="874" textLength="97.6" clip-path="url(#terminal-3023300521-line-35)">&#160;palette</text>
    </g>
    </g>
</svg>
