<svg class="rich-terminal" viewBox="0 0 1482 928.4" xmlns="http://www.w3.org/2000/svg">
    <!-- Generated with Rich https://www.textualize.io -->
    <style>

    @font-face {
        font-family: "Fira Code";
        src: local("FiraCode-Regular"),
                url("https://cdnjs.cloudflare.com/ajax/libs/firacode/6.2.0/woff2/FiraCode-Regular.woff2") format("woff2"),
                url("https://cdnjs.cloudflare.com/ajax/libs/firacode/6.2.0/woff/FiraCode-Regular.woff") format("woff");
        font-style: normal;
        font-weight: 400;
    }
    @font-face {
        font-family: "Fira Code";
        src: local("FiraCode-Bold"),
                url("https://cdnjs.cloudflare.com/ajax/libs/firacode/6.2.0/woff2/FiraCode-Bold.woff2") format("woff2"),
                url("https://cdnjs.cloudflare.com/ajax/libs/firacode/6.2.0/woff/FiraCode-Bold.woff") format("woff");
        font-style: bold;
        font-weight: 700;
    }

    .terminal-60183283-matrix {
        font-family: Fira Code, monospace;
        font-size: 20px;
        line-height: 24.4px;
        font-variant-east-asian: full-width;
    }

    .terminal-60183283-title {
        font-size: 18px;
        font-weight: bold;
        font-family: arial;
    }

    .terminal-60183283-r1 { fill: #121212 }
.terminal-60183283-r2 { fill: #0178d4 }
.terminal-60183283-r3 { fill: #c5c8c6 }
.terminal-60183283-r4 { fill: #e0e0e0 }
.terminal-60183283-r5 { fill: #e0e0e0;font-weight: bold }
.terminal-60183283-r6 { fill: #00ffff }
.terminal-60183283-r7 { fill: #ffa62b;font-weight: bold }
.terminal-60183283-r8 { fill: #495259 }
    </style>

    <defs>
    <clipPath id="terminal-60183283-clip-terminal">
      <rect x="0" y="0" width="1463.0" height="877.4" />
    </clipPath>
    <clipPath id="terminal-60183283-line-0">
    <rect x="0" y="1.5" width="1464" height="24.65"/>
            </clipPath>
<clipPath id="terminal-60183283-line-1">
    <rect x="0" y="25.9" width="1464" height="24.65"/>
            </clipPath>
<clipPath id="terminal-60183283-line-2">
    <rect x="0" y="50.3" width="1464" height="24.65"/>
            </clipPath>
<clipPath id="terminal-60183283-line-3">
    <rect x="0" y="74.7" width="1464" height="24.65"/>
            </clipPath>
<clipPath id="terminal-60183283-line-4">
    <rect x="0" y="99.1" width="1464" height="24.65"/>
            </clipPath>
<clipPath id="terminal-60183283-line-5">
    <rect x="0" y="123.5" width="1464" height="24.65"/>
            </clipPath>
<clipPath id="terminal-60183283-line-6">
    <rect x="0" y="147.9" width="1464" height="24.65"/>
            </clipPath>
<clipPath id="terminal-60183283-line-7">
    <rect x="0" y="172.3" width="1464" height="24.65"/>
            </clipPath>
<clipPath id="terminal-60183283-line-8">
    <rect x="0" y="196.7" width="1464" height="24.65"/>
            </clipPath>
<clipPath id="terminal-60183283-line-9">
    <rect x="0" y="221.1" width="1464" height="24.65"/>
            </clipPath>
<clipPath id="terminal-60183283-line-10">
    <rect x="0" y="245.5" width="1464" height="24.65"/>
            </clipPath>
<clipPath id="terminal-60183283-line-11">
    <rect x="0" y="269.9" width="1464" height="24.65"/>
            </clipPath>
<clipPath id="terminal-60183283-line-12">
    <rect x="0" y="294.3" width="1464" height="24.65"/>
            </clipPath>
<clipPath id="terminal-60183283-line-13">
    <rect x="0" y="318.7" width="1464" height="24.65"/>
            </clipPath>
<clipPath id="terminal-60183283-line-14">
    <rect x="0" y="343.1" width="1464" height="24.65"/>
            </clipPath>
<clipPath id="terminal-60183283-line-15">
    <rect x="0" y="367.5" width="1464" height="24.65"/>
            </clipPath>
<clipPath id="terminal-60183283-line-16">
    <rect x="0" y="391.9" width="1464" height="24.65"/>
            </clipPath>
<clipPath id="terminal-60183283-line-17">
    <rect x="0" y="416.3" width="1464" height="24.65"/>
            </clipPath>
<clipPath id="terminal-60183283-line-18">
    <rect x="0" y="440.7" width="1464" height="24.65"/>
            </clipPath>
<clipPath id="terminal-60183283-line-19">
    <rect x="0" y="465.1" width="1464" height="24.65"/>
            </clipPath>
<clipPath id="terminal-60183283-line-20">
    <rect x="0" y="489.5" width="1464" height="24.65"/>
            </clipPath>
<clipPath id="terminal-60183283-line-21">
    <rect x="0" y="513.9" width="1464" height="24.65"/>
            </clipPath>
<clipPath id="terminal-60183283-line-22">
    <rect x="0" y="538.3" width="1464" height="24.65"/>
            </clipPath>
<clipPath id="terminal-60183283-line-23">
    <rect x="0" y="562.7" width="1464" height="24.65"/>
            </clipPath>
<clipPath id="terminal-60183283-line-24">
    <rect x="0" y="587.1" width="1464" height="24.65"/>
            </clipPath>
<clipPath id="terminal-60183283-line-25">
    <rect x="0" y="611.5" width="1464" height="24.65"/>
            </clipPath>
<clipPath id="terminal-60183283-line-26">
    <rect x="0" y="635.9" width="1464" height="24.65"/>
            </clipPath>
<clipPath id="terminal-60183283-line-27">
    <rect x="0" y="660.3" width="1464" height="24.65"/>
            </clipPath>
<clipPath id="terminal-60183283-line-28">
    <rect x="0" y="684.7" width="1464" height="24.65"/>
            </clipPath>
<clipPath id="terminal-60183283-line-29">
    <rect x="0" y="709.1" width="1464" height="24.65"/>
            </clipPath>
<clipPath id="terminal-60183283-line-30">
    <rect x="0" y="733.5" width="1464" height="24.65"/>
            </clipPath>
<clipPath id="terminal-60183283-line-31">
    <rect x="0" y="757.9" width="1464" height="24.65"/>
            </clipPath>
<clipPath id="terminal-60183283-line-32">
    <rect x="0" y="782.3" width="1464" height="24.65"/>
            </clipPath>
<clipPath id="terminal-60183283-line-33">
    <rect x="0" y="806.7" width="1464" height="24.65"/>
            </clipPath>
<clipPath id="terminal-60183283-line-34">
    <rect x="0" y="831.1" width="1464" height="24.65"/>
            </clipPath>
    </defs>

    <rect fill="#292929" stroke="rgba(255,255,255,0.35)" stroke-width="1" x="1" y="1" width="1480" height="926.4" rx="8"/><text class="terminal-60183283-title" fill="#c5c8c6" text-anchor="middle" x="740" y="27">crossview</text>
            <g transform="translate(26,22)">
            <circle cx="0" cy="0" r="7" fill="#ff5f57"/>
            <circle cx="22" cy="0" r="7" fill="#febc2e"/>
            <circle cx="44" cy="0" r="7" fill="#28c840"/>
            </g>
        
    <g transform="translate(9, 41)" clip-path="url(#terminal-60183283-clip-terminal)">
    <rect fill="#0178d4" x="0" y="1.5" width="12.2" height="24.65" shape-rendering="crispEdges"/><rect fill="#272727" x="12.2" y="1.5" width="85.4" height="24.65" shape-rendering="crispEdges"/><rect fill="#272727" x="97.6" y="1.5" width="1244.4" height="24.65" shape-rendering="crispEdges"/><rect fill="#272727" x="1342" y="1.5" width="109.8" height="24.65" shape-rendering="crispEdges"/><rect fill="#121212" x="1451.8" y="1.5" width="12.2" height="24.65" shape-rendering="crispEdges"/><rect fill="#0178d4" x="0" y="25.9" width="12.2" height="24.65" shape-rendering="crispEdges"/><rect fill="#272727" x="12.2" y="25.9" width="24.4" height="24.65" shape-rendering="crispEdges"/><rect fill="#2d4e74" x="36.6" y="25.9" width="109.8" height="24.65" shape-rendering="crispEdges"/><rect fill="#e0e0e0" x="146.4" y="25.9" width="12.2" height="24.65" shape-rendering="crispEdges"/><rect fill="#272727" x="158.6" y="25.9" width="1268.8" height="24.65" shape-rendering="crispEdges"/><rect fill="#272727" x="1427.4" y="25.9" width="24.4" height="24.65" shape-rendering="crispEdges"/><rect fill="#121212" x="1451.8" y="25.9" width="12.2" height="24.65" shape-rendering="crispEdges"/><rect fill="#0178d4" x="0" y="50.3" width="12.2" height="24.65" shape-rendering="crispEdges"/><rect fill="#272727" x="12.2" y="50.3" width="1439.6" height="24.65" shape-rendering="crispEdges"/><rect fill="#121212" x="1451.8" y="50.3" width="12.2" height="24.65" shape-rendering="crispEdges"/><rect fill="#1e1e1e" x="0" y="74.7" width="24.4" height="24.65" shape-rendering="crispEdges"/><rect fill="#1e1e1e" x="24.4" y="74.7" width="195.2" height="24.65" shape-rendering="crispEdges"/><rect fill="#1e1e1e" x="219.6" y="74.7" width="390.4" height="24.65" shape-rendering="crispEdges"/><rect fill="#121212" x="610" y="74.7" width="854" height="24.65" shape-rendering="crispEdges"/><rect fill="#1e1e1e" x="0" y="99.1" width="24.4" height="24.65" shape-rendering="crispEdges"/><rect fill="#1e1e1e" x="24.4" y="99.1" width="280.6" height="24.65" shape-rendering="crispEdges"/><rect fill="#1e1e1e" x="305" y="99.1" width="305" height="24.65" shape-rendering="crispEdges"/><rect fill="#121212" x="610" y="99.1" width="24.4" height="24.65" shape-rendering="crispEdges"/><rect fill="#121212" x="634.4" y="99.1" width="170.8" height="24.65" shape-rendering="crispEdges"/><rect fill="#121212" x="805.2" y="99.1" width="634.4" height="24.65" shape-rendering="crispEdges"/><rect fill="#121212" x="1439.6" y="99.1" width="24.4" height="24.65" shape-rendering="crispEdges"/><rect fill="#1e1e1e" x="0" y="123.5" width="24.4" height="24.65" shape-rendering="crispEdges"/><rect fill="#1e1e1e" x="24.4" y="123.5" width="231.8" height="24.65" shape-rendering="crispEdges"/><rect fill="#1e1e1e" x="256.2" y="123.5" width="353.8" height="24.65" shape-rendering="crispEdges"/><rect fill="#121212" x="610" y="123.5" width="24.4" height="24.65" shape-rendering="crispEdges"/><rect fill="#121212" x="634.4" y="123.5" width="0" height="24.65" shape-rendering="crispEdges"/><rect fill="#121212" x="634.4" y="123.5" width="805.2" height="24.65" shape-rendering="crispEdges"/><rect fill="#121212" x="1439.6" y="123.5" width="24.4" height="24.65" shape-rendering="crispEdges"/><rect fill="#1e1e1e" x="0" y="147.9" width="24.4" height="24.65" shape-rendering="crispEdges"/><rect fill="#1e1e1e" x="24.4" y="147.9" width="305" height="24.65" shape-rendering="crispEdges"/><rect fill="#1e1e1e" x="329.4" y="147.9" width="280.6" height="24.65" shape-rendering="crispEdges"/><rect fill="#121212" x="610" y="147.9" width="24.4" height="24.65" shape-rendering="crispEdges"/><rect fill="#121212" x="634.4" y="147.9" width="24.4" height="24.65" shape-rendering="crispEdges"/><rect fill="#121212" x="658.8" y="147.9" width="85.4" height="24.65" shape-rendering="crispEdges"/><rect fill="#121212" x="744.2" y="147.9" width="366" height="24.65" shape-rendering="crispEdges"/><rect fill="#121212" x="1110.2" y="147.9" width="329.4" height="24.65" shape-rendering="crispEdges"/><rect fill="#121212" x="1439.6" y="147.9" width="24.4" height="24.65" shape-rendering="crispEdges"/><rect fill="#1e1e1e" x="0" y="172.3" width="24.4" height="24.65" shape-rendering="crispEdges"/><rect fill="#1e1e1e" x="24.4" y="172.3" width="207.4" height="24.65" shape-rendering="crispEdges"/><rect fill="#1e1e1e" x="231.8" y="172.3" width="378.2" height="24.65" shape-rendering="crispEdges"/><rect fill="#121212" x="610" y="172.3" width="24.4" height="24.65" shape-rendering="crispEdges"/><rect fill="#121212" x="634.4" y="172.3" width="24.4" height="24.65" shape-rendering="crispEdges"/><rect fill="#121212" x="658.8" y="172.3" width="97.6" height="24.65" shape-rendering="crispEdges"/><rect fill="#121212" x="756.4" y="172.3" width="329.4" height="24.65" shape-rendering="crispEdges"/><rect fill="#121212" x="1085.8" y="172.3" width="353.8" height="24.65" shape-rendering="crispEdges"/><rect fill="#121212" x="1439.6" y="172.3" width="24.4" height="24.65" shape-rendering="crispEdges"/><rect fill="#1e1e1e" x="0" y="196.7" width="24.4" height="24.65" shape-rendering="crispEdges"/><rect fill="#1e1e1e" x="24.4" y="196.7" width="195.2" height="24.65" shape-rendering="crispEdges"/><rect fill="#1e1e1e" x="219.6" y="196.7" width="390.4" height="24.65" shape-rendering="crispEdges"/><rect fill="#121212" x="610" y="196.7" width="24.4" height="24.65" shape-rendering="crispEdges"/><rect fill="#121212" x="634.4" y="196.7" width="24.4" height="24.65" shape-rendering="crispEdges"/><rect fill="#121212" x="658.8" y="196.7" width="97.6" height="24.65" shape-rendering="crispEdges"/><rect fill="#121212" x="756.4" y="196.7" width="585.6" height="24.65" shape-rendering="crispEdges"/><rect fill="#121212" x="1342" y="196.7" width="97.6" height="24.65" shape-rendering="crispEdges"/><rect fill="#121212" x="1439.6" y="196.7" width="24.4" height="24.65" shape-rendering="crispEdges"/><rect fill="#1e1e1e" x="0" y="221.1" width="610" height="24.65" shape-rendering="crispEdges"/><rect fill="#121212" x="610" y="221.1" width="24.4" height="24.65" shape-rendering="crispEdges"/><rect fill="#121212" x="634.4" y="221.1" width="24.4" height="24.65" shape-rendering="crispEdges"/><rect fill="#121212" x="658.8" y="221.1" width="97.6" height="24.65" shape-rendering="crispEdges"/><rect fill="#121212" x="756.4" y="221.1" width="317.2" height="24.65" shape-rendering="crispEdges"/><rect fill="#121212" x="1073.6" y="221.1" width="366" height="24.65" shape-rendering="crispEdges"/><rect fill="#121212" x="1439.6" y="221.1" width="24.4" height="24.65" shape-rendering="crispEdges"/><rect fill="#1e1e1e" x="0" y="245.5" width="610" height="24.65" shape-rendering="crispEdges"/><rect fill="#121212" x="610" y="245.5" width="24.4" height="24.65" shape-rendering="crispEdges"/><rect fill="#121212" x="634.4" y="245.5" width="24.4" height="24.65" shape-rendering="crispEdges"/><rect fill="#121212" x="658.8" y="245.5" width="109.8" height="24.65" shape-rendering="crispEdges"/><rect fill="#121212" x="768.6" y="245.5" width="671" height="24.65" shape-rendering="crispEdges"/><rect fill="#121212" x="1439.6" y="245.5" width="24.4" height="24.65" shape-rendering="crispEdges"/><rect fill="#1e1e1e" x="0" y="269.9" width="610" height="24.65" shape-rendering="crispEdges"/><rect fill="#121212" x="610" y="269.9" width="24.4" height="24.65" shape-rendering="crispEdges"/><rect fill="#121212" x="634.4" y="269.9" width="24.4" height="24.65" shape-rendering="crispEdges"/><rect fill="#121212" x="658.8" y="269.9" width="61" height="24.65" shape-rendering="crispEdges"/><rect fill="#121212" x="719.8" y="269.9" width="353.8" height="24.65" shape-rendering="crispEdges"/><rect fill="#121212" x="1073.6" y="269.9" width="366" height="24.65" shape-rendering="crispEdges"/><rect fill="#121212" x="1439.6" y="269.9" width="24.4" height="24.65" shape-rendering="crispEdges"/><rect fill="#1e1e1e" x="0" y="294.3" width="610" height="24.65" shape-rendering="crispEdges"/><rect fill="#121212" x="610" y="294.3" width="24.4" height="24.65" shape-rendering="crispEdges"/><rect fill="#121212" x="634.4" y="294.3" width="24.4" height="24.65" shape-rendering="crispEdges"/><rect fill="#121212" x="658.8" y="294.3" width="109.8" height="24.65" shape-rendering="crispEdges"/><rect fill="#121212" x="768.6" y="294.3" width="500.2" height="24.65" shape-rendering="crispEdges"/><rect fill="#121212" x="1268.8" y="294.3" width="170.8" height="24.65" shape-rendering="crispEdges"/><rect fill="#121212" x="1439.6" y="294.3" width="24.4" height="24.65" shape-rendering="crispEdges"/><rect fill="#1e1e1e" x="0" y="318.7" width="610" height="24.65" shape-rendering="crispEdges"/><rect fill="#121212" x="610" y="318.7" width="24.4" height="24.65" shape-rendering="crispEdges"/><rect fill="#121212" x="634.4" y="318.7" width="24.4" height="24.65" shape-rendering="crispEdges"/><rect fill="#121212" x="658.8" y="318.7" width="61" height="24.65" shape-rendering="crispEdges"/><rect fill="#121212" x="719.8" y="318.7" width="353.8" height="24.65" shape-rendering="crispEdges"/><rect fill="#121212" x="1073.6" y="318.7" width="366" height="24.65" shape-rendering="crispEdges"/><rect fill="#121212" x="1439.6" y="318.7" width="24.4" height="24.65" shape-rendering="crispEdges"/><rect fill="#1e1e1e" x="0" y="343.1" width="610" height="24.65" shape-rendering="crispEdges"/><rect fill="#121212" x="610" y="343.1" width="24.4" height="24.65" shape-rendering="crispEdges"/><rect fill="#121212" x="634.4" y="343.1" width="24.4" height="24.65" shape-rendering="crispEdges"/><rect fill="#121212" x="658.8" y="343.1" width="109.8" height="24.65" shape-rendering="crispEdges"/><rect fill="#121212" x="768.6" y="343.1" width="414.8" height="24.65" shape-rendering="crispEdges"/><rect fill="#121212" x="1183.4" y="343.1" width="256.2" height="24.65" shape-rendering="crispEdges"/><rect fill="#121212" x="1439.6" y="343.1" width="24.4" height="24.65" shape-rendering="crispEdges"/><rect fill="#1e1e1e" x="0" y="367.5" width="610" height="24.65" shape-rendering="crispEdges"/><rect fill="#121212" x="610" y="367.5" width="24.4" height="24.65" shape-rendering="crispEdges"/><rect fill="#121212" x="634.4" y="367.5" width="24.4" height="24.65" shape-rendering="crispEdges"/><rect fill="#121212" x="658.8" y="367.5" width="97.6" height="24.65" shape-rendering="crispEdges"/><rect fill="#121212" x="756.4" y="367.5" width="378.2" height="24.65" shape-rendering="crispEdges"/><rect fill="#121212" x="1134.6" y="367.5" width="305" height="24.65" shape-rendering="crispEdges"/><rect fill="#121212" x="1439.6" y="367.5" width="24.4" height="24.65" shape-rendering="crispEdges"/><rect fill="#1e1e1e" x="0" y="391.9" width="610" height="24.65" shape-rendering="crispEdges"/><rect fill="#121212" x="610" y="391.9" width="24.4" height="24.65" shape-rendering="crispEdges"/><rect fill="#121212" x="634.4" y="391.9" width="24.4" height="24.65" shape-rendering="crispEdges"/><rect fill="#121212" x="658.8" y="391.9" width="109.8" height="24.65" shape-rendering="crispEdges"/><rect fill="#121212" x="768.6" y="391.9" width="292.8" height="24.65" shape-rendering="crispEdges"/><rect fill="#121212" x="1061.4" y="391.9" width="378.2" height="24.65" shape-rendering="crispEdges"/><rect fill="#121212" x="1439.6" y="391.9" width="24.4" height="24.65" shape-rendering="crispEdges"/><rect fill="#1e1e1e" x="0" y="416.3" width="610" height="24.65" shape-rendering="crispEdges"/><rect fill="#121212" x="610" y="416.3" width="24.4" height="24.65" shape-rendering="crispEdges"/><rect fill="#121212" x="634.4" y="416.3" width="24.4" height="24.65" shape-rendering="crispEdges"/><rect fill="#121212" x="658.8" y="416.3" width="97.6" height="24.65" shape-rendering="crispEdges"/><rect fill="#121212" x="756.4" y="416.3" width="573.4" height="24.65" shape-rendering="crispEdges"/><rect fill="#121212" x="1329.8" y="416.3" width="109.8" height="24.65" shape-rendering="crispEdges"/><rect fill="#121212" x="1439.6" y="416.3" width="24.4" height="24.65" shape-rendering="crispEdges"/><rect fill="#1e1e1e" x="0" y="440.7" width="610" height="24.65" shape-rendering="crispEdges"/><rect fill="#121212" x="610" y="440.7" width="24.4" height="24.65" shape-rendering="crispEdges"/><rect fill="#121212" x="634.4" y="440.7" width="109.8" height="24.65" shape-rendering="crispEdges"/><rect fill="#121212" x="744.2" y="440.7" width="695.4" height="24.65" shape-rendering="crispEdges"/><rect fill="#121212" x="1439.6" y="440.7" width="24.4" height="24.65" shape-rendering="crispEdges"/><rect fill="#1e1e1e" x="0" y="465.1" width="610" height="24.65" shape-rendering="crispEdges"/><rect fill="#121212" x="610" y="465.1" width="24.4" height="24.65" shape-rendering="crispEdges"/><rect fill="#121212" x="634.4" y="465.1" width="24.4" height="24.65" shape-rendering="crispEdges"/><rect fill="#121212" x="658.8" y="465.1" width="97.6" height="24.65" shape-rendering="crispEdges"/><rect fill="#121212" x="756.4" y="465.1" width="573.4" height="24.65" shape-rendering="crispEdges"/><rect fill="#121212" x="1329.8" y="465.1" width="109.8" height="24.65" shape-rendering="crispEdges"/><rect fill="#121212" x="1439.6" y="465.1" width="24.4" height="24.65" shape-rendering="crispEdges"/><rect fill="#1e1e1e" x="0" y="489.5" width="610" height="24.65" shape-rendering="crispEdges"/><rect fill="#121212" x="610" y="489.5" width="24.4" height="24.65" shape-rendering="crispEdges"/><rect fill="#121212" x="634.4" y="489.5" width="109.8" height="24.65" shape-rendering="crispEdges"/><rect fill="#121212" x="744.2" y="489.5" width="695.4" height="24.65" shape-rendering="crispEdges"/><rect fill="#121212" x="1439.6" y="489.5" width="24.4" height="24.65" shape-rendering="crispEdges"/><rect fill="#1e1e1e" x="0" y="513.9" width="610" height="24.65" shape-rendering="crispEdges"/><rect fill="#121212" x="610" y="513.9" width="24.4" height="24.65" shape-rendering="crispEdges"/><rect fill="#121212" x="634.4" y="513.9" width="24.4" height="24.65" shape-rendering="crispEdges"/><rect fill="#121212" x="658.8" y="513.9" width="109.8" height="24.65" shape-rendering="crispEdges"/><rect fill="#121212" x="768.6" y="513.9" width="317.2" height="24.65" shape-rendering="crispEdges"/><rect fill="#121212" x="1085.8" y="513.9" width="353.8" height="24.65" shape-rendering="crispEdges"/><rect fill="#121212" x="1439.6" y="513.9" width="24.4" height="24.65" shape-rendering="crispEdges"/><rect fill="#1e1e1e" x="0" y="538.3" width="610" height="24.65" shape-rendering="crispEdges"/><rect fill="#121212" x="610" y="538.3" width="24.4" height="24.65" shape-rendering="crispEdges"/><rect fill="#121212" x="634.4" y="538.3" width="24.4" height="24.65" shape-rendering="crispEdges"/><rect fill="#121212" x="658.8" y="538.3" width="109.8" height="24.65" shape-rendering="crispEdges"/><rect fill="#121212" x="768.6" y="538.3" width="341.6" height="24.65" shape-rendering="crispEdges"/><rect fill="#121212" x="1110.2" y="538.3" width="329.4" height="24.65" shape-rendering="crispEdges"/><rect fill="#121212" x="1439.6" y="538.3" width="24.4" height="24.65" shape-rendering="crispEdges"/><rect fill="#1e1e1e" x="0" y="562.7" width="610" height="24.65" shape-rendering="crispEdges"/><rect fill="#121212" x="610" y="562.7" width="24.4" height="24.65" shape-rendering="crispEdges"/><rect fill="#121212" x="634.4" y="562.7" width="24.4" height="24.65" shape-rendering="crispEdges"/><rect fill="#121212" x="658.8" y="562.7" width="109.8" height="24.65" shape-rendering="crispEdges"/><rect fill="#121212" x="768.6" y="562.7" width="512.4" height="24.65" shape-rendering="crispEdges"/><rect fill="#121212" x="1281" y="562.7" width="158.6" height="24.65" shape-rendering="crispEdges"/><rect fill="#121212" x="1439.6" y="562.7" width="24.4" height="24.65" shape-rendering="crispEdges"/><rect fill="#1e1e1e" x="0" y="587.1" width="610" height="24.65" shape-rendering="crispEdges"/><rect fill="#121212" x="610" y="587.1" width="24.4" height="24.65" shape-rendering="crispEdges"/><rect fill="#121212" x="634.4" y="587.1" width="24.4" height="24.65" shape-rendering="crispEdges"/><rect fill="#121212" x="658.8" y="587.1" width="61" height="24.65" shape-rendering="crispEdges"/><rect fill="#121212" x="719.8" y="587.1" width="317.2" height="24.65" shape-rendering="crispEdges"/><rect fill="#121212" x="1037" y="587.1" width="402.6" height="24.65" shape-rendering="crispEdges"/><rect fill="#121212" x="1439.6" y="587.1" width="24.4" height="24.65" shape-rendering="crispEdges"/><rect fill="#1e1e1e" x="0" y="611.5" width="610" height="24.65" shape-rendering="crispEdges"/><rect fill="#121212" x="610" y="611.5" width="24.4" height="24.65" shape-rendering="crispEdges"/><rect fill="#121212" x="634.4" y="611.5" width="24.4" height="24.65" shape-rendering="crispEdges"/><rect fill="#121212" x="658.8" y="611.5" width="109.8" height="24.65" shape-rendering="crispEdges"/><rect fill="#121212" x="768.6" y="611.5" width="451.4" height="24.65" shape-rendering="crispEdges"/><rect fill="#121212" x="1220" y="611.5" width="219.6" height="24.65" shape-rendering="crispEdges"/><rect fill="#121212" x="1439.6" y="611.5" width="24.4" height="24.65" shape-rendering="crispEdges"/><rect fill="#1e1e1e" x="0" y="635.9" width="610" height="24.65" shape-rendering="crispEdges"/><rect fill="#121212" x="610" y="635.9" width="24.4" height="24.65" shape-rendering="crispEdges"/><rect fill="#121212" x="634.4" y="635.9" width="24.4" height="24.65" shape-rendering="crispEdges"/><rect fill="#121212" x="658.8" y="635.9" width="109.8" height="24.65" shape-rendering="crispEdges"/><rect fill="#121212" x="768.6" y="635.9" width="378.2" height="24.65" shape-rendering="crispEdges"/><rect fill="#121212" x="1146.8" y="635.9" width="292.8" height="24.65" shape-rendering="crispEdges"/><rect fill="#121212" x="1439.6" y="635.9" width="24.4" height="24.65" shape-rendering="crispEdges"/><rect fill="#1e1e1e" x="0" y="660.3" width="610" height="24.65" shape-rendering="crispEdges"/><rect fill="#121212" x="610" y="660.3" width="24.4" height="24.65" shape-rendering="crispEdges"/><rect fill="#121212" x="634.4" y="660.3" width="24.4" height="24.65" shape-rendering="crispEdges"/><rect fill="#121212" x="658.8" y="660.3" width="109.8" height="24.65" shape-rendering="crispEdges"/><rect fill="#121212" x="768.6" y="660.3" width="378.2" height="24.65" shape-rendering="crispEdges"/><rect fill="#121212" x="1146.8" y="660.3" width="292.8" height="24.65" shape-rendering="crispEdges"/><rect fill="#121212" x="1439.6" y="660.3" width="24.4" height="24.65" shape-rendering="crispEdges"/><rect fill="#1e1e1e" x="0" y="684.7" width="610" height="24.65" shape-rendering="crispEdges"/><rect fill="#121212" x="610" y="684.7" width="24.4" height="24.65" shape-rendering="crispEdges"/><rect fill="#121212" x="634.4" y="684.7" width="24.4" height="24.65" shape-rendering="crispEdges"/><rect fill="#121212" x="658.8" y="684.7" width="109.8" height="24.65" shape-rendering="crispEdges"/><rect fill="#121212" x="768.6" y="684.7" width="658.8" height="24.65" shape-rendering="crispEdges"/><rect fill="#121212" x="1427.4" y="684.7" width="12.2" height="24.65" shape-rendering="crispEdges"/><rect fill="#121212" x="1439.6" y="684.7" width="24.4" height="24.65" shape-rendering="crispEdges"/><rect fill="#1e1e1e" x="0" y="709.1" width="610" height="24.65" shape-rendering="crispEdges"/><rect fill="#121212" x="610" y="709.1" width="24.4" height="24.65" shape-rendering="crispEdges"/><rect fill="#121212" x="634.4" y="709.1" width="24.4" height="24.65" shape-rendering="crispEdges"/><rect fill="#121212" x="658.8" y="709.1" width="109.8" height="24.65" shape-rendering="crispEdges"/><rect fill="#121212" x="768.6" y="709.1" width="378.2" height="24.65" shape-rendering="crispEdges"/><rect fill="#121212" x="1146.8" y="709.1" width="292.8" height="24.65" shape-rendering="crispEdges"/><rect fill="#121212" x="1439.6" y="709.1" width="24.4" height="24.65" shape-rendering="crispEdges"/><rect fill="#1e1e1e" x="0" y="733.5" width="610" height="24.65" shape-rendering="crispEdges"/><rect fill="#121212" x="610" y="733.5" width="24.4" height="24.65" shape-rendering="crispEdges"/><rect fill="#121212" x="634.4" y="733.5" width="24.4" height="24.65" shape-rendering="crispEdges"/><rect fill="#121212" x="658.8" y="733.5" width="85.4" height="24.65" shape-rendering="crispEdges"/><rect fill="#121212" x="744.2" y="733.5" width="353.8" height="24.65" shape-rendering="crispEdges"/><rect fill="#121212" x="1098" y="733.5" width="341.6" height="24.65" shape-rendering="crispEdges"/><rect fill="#121212" x="1439.6" y="733.5" width="24.4" height="24.65" shape-rendering="crispEdges"/><rect fill="#1e1e1e" x="0" y="757.9" width="610" height="24.65" shape-rendering="crispEdges"/><rect fill="#121212" x="610" y="757.9" width="24.4" height="24.65" shape-rendering="crispEdges"/><rect fill="#121212" x="634.4" y="757.9" width="24.4" height="24.65" shape-rendering="crispEdges"/><rect fill="#121212" x="658.8" y="757.9" width="109.8" height="24.65" shape-rendering="crispEdges"/><rect fill="#121212" x="768.6" y="757.9" width="561.2" height="24.65" shape-rendering="crispEdges"/><rect fill="#121212" x="1329.8" y="757.9" width="109.8" height="24.65" shape-rendering="crispEdges"/><rect fill="#121212" x="1439.6" y="757.9" width="24.4" height="24.65" shape-rendering="crispEdges"/><rect fill="#1e1e1e" x="0" y="782.3" width="610" height="24.65" shape-rendering="crispEdges"/><rect fill="#121212" x="610" y="782.3" width="24.4" height="24.65" shape-rendering="crispEdges"/><rect fill="#121212" x="634.4" y="782.3" width="24.4" height="24.65" shape-rendering="crispEdges"/><rect fill="#121212" x="658.8" y="782.3" width="85.4" height="24.65" shape-rendering="crispEdges"/><rect fill="#121212" x="744.2" y="782.3" width="610" height="24.65" shape-rendering="crispEdges"/><rect fill="#121212" x="1354.2" y="782.3" width="85.4" height="24.65" shape-rendering="crispEdges"/><rect fill="#121212" x="1439.6" y="782.3" width="24.4" height="24.65" shape-rendering="crispEdges"/><rect fill="#1e1e1e" x="0" y="806.7" width="610" height="24.65" shape-rendering="crispEdges"/><rect fill="#121212" x="610" y="806.7" width="24.4" height="24.65" shape-rendering="crispEdges"/><rect fill="#121212" x="634.4" y="806.7" width="24.4" height="24.65" shape-rendering="crispEdges"/><rect fill="#121212" x="658.8" y="806.7" width="97.6" height="24.65" shape-rendering="crispEdges"/><rect fill="#121212" x="756.4" y="806.7" width="597.8" height="24.65" shape-rendering="crispEdges"/><rect fill="#121212" x="1354.2" y="806.7" width="85.4" height="24.65" shape-rendering="crispEdges"/><rect fill="#121212" x="1439.6" y="806.7" width="24.4" height="24.65" shape-rendering="crispEdges"/><rect fill="#1e1e1e" x="0" y="831.1" width="610" height="24.65" shape-rendering="crispEdges"/><rect fill="#121212" x="610" y="831.1" width="24.4" height="24.65" shape-rendering="crispEdges"/><rect fill="#121212" x="634.4" y="831.1" width="231.8" height="24.65" shape-rendering="crispEdges"/><rect fill="#121212" x="866.2" y="831.1" width="573.4" height="24.65" shape-rendering="crispEdges"/><rect fill="#121212" x="1439.6" y="831.1" width="24.4" height="24.65" shape-rendering="crispEdges"/><rect fill="#242f38" x="0" y="855.5" width="36.6" height="24.65" shape-rendering="crispEdges"/><rect fill="#242f38" x="36.6" y="855.5" width="85.4" height="24.65" shape-rendering="crispEdges"/><rect fill="#242f38" x="122" y="855.5" width="61" height="24.65" shape-rendering="crispEdges"/><rect fill="#242f38" x="183" y="855.5" width="61" height="24.65" shape-rendering="crispEdges"/><rect fill="#242f38" x="244" y="855.5" width="1073.6" height="24.65" shape-rendering="crispEdges"/><rect fill="#242f38" x="1317.6" y="855.5" width="12.2" height="24.65" shape-rendering="crispEdges"/><rect fill="#242f38" x="1329.8" y="855.5" width="24.4" height="24.65" shape-rendering="crispEdges"/><rect fill="#242f38" x="1354.2" y="855.5" width="97.6" height="24.65" shape-rendering="crispEdges"/><rect fill="#242f38" x="1451.8" y="855.5" width="12.2" height="24.65" shape-rendering="crispEdges"/>
    <g class="terminal-60183283-matrix">
    <text class="terminal-60183283-r1" x="0" y="20" textLength="12.2" clip-path="url(#terminal-60183283-line-0)">▊</text><text class="terminal-60183283-r2" x="12.2" y="20" textLength="85.4" clip-path="url(#terminal-60183283-line-0)">▔▔▔▔▔▔▔</text><text class="terminal-60183283-r2" x="97.6" y="20" textLength="1244.4" clip-path="url(#terminal-60183283-line-0)">▔▔▔▔▔▔▔▔▔▔▔▔▔▔▔▔▔▔▔▔▔▔▔▔▔▔▔▔▔▔▔▔▔▔▔▔▔▔▔▔▔▔▔▔▔▔▔▔▔▔▔▔▔▔▔▔▔▔▔▔▔▔▔▔▔▔▔▔▔▔▔▔▔▔▔▔▔▔▔▔▔▔▔▔▔▔▔▔▔▔▔▔▔▔▔▔▔▔▔▔▔▔</text><text class="terminal-60183283-r2" x="1342" y="20" textLength="109.8" clip-path="url(#terminal-60183283-line-0)">▔▔▔▔▔▔▔▔▔</text><text class="terminal-60183283-r2" x="1451.8" y="20" textLength="12.2" clip-path="url(#terminal-60183283-line-0)">▎</text><text class="terminal-60183283-r3" x="1464" y="20" textLength="12.2" clip-path="url(#terminal-60183283-line-0)">
</text><text class="terminal-60183283-r1" x="0" y="44.4" textLength="12.2" clip-path="url(#terminal-60183283-line-1)">▊</text><text class="terminal-60183283-r4" x="36.6" y="44.4" textLength="109.8" clip-path="url(#terminal-60183283-line-1)">injection</text><text class="terminal-60183283-r2" x="1451.8" y="44.4" textLength="12.2" clip-path="url(#terminal-60183283-line-1)">▎</text><text class="terminal-60183283-r3" x="1464" y="44.4" textLength="12.2" clip-path="url(#terminal-60183283-line-1)">
</text><text class="terminal-60183283-r1" x="0" y="68.8" textLength="12.2" clip-path="url(#terminal-60183283-line-2)">▊</text><text class="terminal-60183283-r2" x="12.2" y="68.8" textLength="1439.6" clip-path="url(#terminal-60183283-line-2)">▁▁▁▁▁▁▁▁▁▁▁▁▁▁▁▁▁▁▁▁▁▁▁▁▁▁▁▁▁▁▁▁▁▁▁▁▁▁▁▁▁▁▁▁▁▁▁▁▁▁▁▁▁▁▁▁▁▁▁▁▁▁▁▁▁▁▁▁▁▁▁▁▁▁▁▁▁▁▁▁▁▁▁▁▁▁▁▁▁▁▁▁▁▁▁▁▁▁▁▁▁▁▁▁▁▁▁▁▁▁▁▁▁▁▁▁▁▁</text><text class="terminal-60183283-r2" x="1451.8" y="68.8" textLength="12.2" clip-path="url(#terminal-60183283-line-2)">▎</text><text class="terminal-60183283-r3" x="1464" y="68.8" textLength="12.2" clip-path="url(#terminal-60183283-line-2)">
</text><text class="terminal-60183283-r4" x="0" y="93.2" textLength="24.4" clip-path="url(#terminal-60183283-line-3)">▶&#160;</text><text class="terminal-60183283-r4" x="24.4" y="93.2" textLength="195.2" clip-path="url(#terminal-60183283-line-3)">CWE&#160;—&#160;Weaknesses</text><text class="terminal-60183283-r3" x="1464" y="93.2" textLength="12.2" clip-path="url(#terminal-60183283-line-3)">
</text><text class="terminal-60183283-r4" x="0" y="117.6" textLength="24.4" clip-path="url(#terminal-60183283-line-4)">▶&#160;</text><text class="terminal-60183283-r4" x="24.4" y="117.6" textLength="280.6" clip-path="url(#terminal-60183283-line-4)">CAPEC&#160;—&#160;Attack&#160;Patterns</text><text class="terminal-60183283-r5" x="634.4" y="117.6" textLength="170.8" clip-path="url(#terminal-60183283-line-4)">Search&#160;results</text><text class="terminal-60183283-r3" x="1464" y="117.6" textLength="12.2" clip-path="url(#terminal-60183283-line-4)">
</text><text class="terminal-60183283-r4" x="0" y="142" textLength="24.4" clip-path="url(#terminal-60183283-line-5)">▶&#160;</text><text class="terminal-60183283-r4" x="24.4" y="142" textLength="231.8" clip-path="url(#terminal-60183283-line-5)">ATT&amp;CK&#160;—&#160;Techniques</text><text class="terminal-60183283-r3" x="1464" y="142" textLength="12.2" clip-path="url(#terminal-60183283-line-5)">
</text><text class="terminal-60183283-r4" x="0" y="166.4" textLength="24.4" clip-path="url(#terminal-60183283-line-6)">▶&#160;</text><text class="terminal-60183283-r4" x="24.4" y="166.4" textLength="305" clip-path="url(#terminal-60183283-line-6)">ATLAS&#160;—&#160;AI/ML&#160;Adversarial</text><text class="terminal-60183283-r6" x="658.8" y="166.4" textLength="85.4" clip-path="url(#terminal-60183283-line-6)">CAPEC-7</text><text class="terminal-60183283-r4" x="744.2" y="166.4" textLength="366" clip-path="url(#terminal-60183283-line-6)">&#160;&#160;(capec)&#160;&#160;Blind&#160;SQL&#160;Injection</text><text class="terminal-60183283-r3" x="1464" y="166.4" textLength="12.2" clip-path="url(#terminal-60183283-line-6)">
</text><text class="terminal-60183283-r4" x="0" y="190.8" textLength="24.4" clip-path="url(#terminal-60183283-line-7)">▶&#160;</text><text class="terminal-60183283-r4" x="24.4" y="190.8" textLength="207.4" clip-path="url(#terminal-60183283-line-7)">D3FEND&#160;—&#160;Defenses</text><text class="terminal-60183283-r6" x="658.8" y="190.8" textLength="97.6" clip-path="url(#terminal-60183283-line-7)">CAPEC-84</text><text class="terminal-60183283-r4" x="756.4" y="190.8" textLength="329.4" clip-path="url(#terminal-60183283-line-7)">&#160;&#160;(capec)&#160;&#160;XQuery&#160;Injection</text><text class="terminal-60183283-r3" x="1464" y="190.8" textLength="12.2" clip-path="url(#terminal-60183283-line-7)">
</text><text class="terminal-60183283-r4" x="0" y="215.2" textLength="24.4" clip-path="url(#terminal-60183283-line-8)">▶&#160;</text><text class="terminal-60183283-r4" x="24.4" y="215.2" textLength="195.2" clip-path="url(#terminal-60183283-line-8)">UKC&#160;—&#160;Kill&#160;Chain</text><text class="terminal-60183283-r6" x="658.8" y="215.2" textLength="97.6" clip-path="url(#terminal-60183283-line-8)">CWE-1409</text><text class="terminal-60183283-r4" x="756.4" y="215.2" textLength="585.6" clip-path="url(#terminal-60183283-line-8)">&#160;&#160;(cwe)&#160;&#160;Comprehensive&#160;Categorization:&#160;Injection</text><text class="terminal-60183283-r3" x="1464" y="215.2" textLength="12.2" clip-path="url(#terminal-60183283-line-8)">
</text><text class="terminal-60183283-r6" x="658.8" y="239.6" textLength="97.6" clip-path="url(#terminal-60183283-line-9)">CAPEC-83</text><text class="terminal-60183283-r4" x="756.4" y="239.6" textLength="317.2" clip-path="url(#terminal-60183283-line-9)">&#160;&#160;(capec)&#160;&#160;XPath&#160;Injection</text><text class="terminal-60183283-r3" x="1464" y="239.6" textLength="12.2" clip-path="url(#terminal-60183283-line-9)">
</text><text class="terminal-60183283-r6" x="658.8" y="264" textLength="109.8" clip-path="url(#terminal-60183283-line-10)">CAPEC-108</text><text class="terminal-60183283-r4" x="768.6" y="264" textLength="671" clip-path="url(#terminal-60183283-line-10)">&#160;&#160;(capec)&#160;&#160;Command&#160;Line&#160;Execution&#160;through&#160;SQL&#160;Injection</text><text class="terminal-60183283-r3" x="1464" y="264" textLength="12.2" clip-path="url(#terminal-60183283-line-10)">
</text><text class="terminal-60183283-r6" x="658.8" y="288.4" textLength="61" clip-path="url(#terminal-60183283-line-11)">T1631</text><text class="terminal-60183283-r4" x="719.8" y="288.4" textLength="353.8" clip-path="url(#terminal-60183283-line-11)">&#160;&#160;(attack)&#160;&#160;Process&#160;Injection</text><text class="terminal-60183283-r3" x="1464" y="288.4" textLength="12.2" clip-path="url(#terminal-60183283-line-11)">
</text><text class="terminal-60183283-r6" x="658.8" y="312.8" textLength="109.8" clip-path="url(#terminal-60183283-line-12)">T1055.002</text><text class="terminal-60183283-r4" x="768.6" y="312.8" textLength="500.2" clip-path="url(#terminal-60183283-line-12)">&#160;&#160;(attack)&#160;&#160;Portable&#160;Executable&#160;Injection</text><text class="terminal-60183283-r3" x="1464" y="312.8" textLength="12.2" clip-path="url(#terminal-60183283-line-12)">
</text><text class="terminal-60183283-r6" x="658.8" y="337.2" textLength="61" clip-path="url(#terminal-60183283-line-13)">T1055</text><text class="terminal-60183283-r4" x="719.8" y="337.2" textLength="353.8" clip-path="url(#terminal-60183283-line-13)">&#160;&#160;(attack)&#160;&#160;Process&#160;Injection</text><text class="terminal-60183283-r3" x="1464" y="337.2" textLength="12.2" clip-path="url(#terminal-60183283-line-13)">
</text><text class="terminal-60183283-r6" x="658.8" y="361.6" textLength="109.8" clip-path="url(#terminal-60183283-line-14)">CAPEC-610</text><text class="terminal-60183283-r4" x="768.6" y="361.6" textLength="414.8" clip-path="url(#terminal-60183283-line-14)">&#160;&#160;(capec)&#160;&#160;Cellular&#160;Data&#160;Injection</text><text class="terminal-60183283-r3" x="1464" y="361.6" textLength="12.2" clip-path="url(#terminal-60183283-line-14)">
</text><text class="terminal-60183283-r6" x="658.8" y="386" textLength="97.6" clip-path="url(#terminal-60183283-line-15)">CAPEC-88</text><text class="terminal-60183283-r4" x="756.4" y="386" textLength="378.2" clip-path="url(#terminal-60183283-line-15)">&#160;&#160;(capec)&#160;&#160;OS&#160;Command&#160;Injection</text><text class="terminal-60183283-r3" x="1464" y="386" textLength="12.2" clip-path="url(#terminal-60183283-line-15)">
</text><text class="terminal-60183283-r6" x="658.8" y="410.4" textLength="109.8" clip-path="url(#terminal-60183283-line-16)">CAPEC-250</text><text class="terminal-60183283-r4" x="768.6" y="410.4" textLength="292.8" clip-path="url(#terminal-60183283-line-16)">&#160;&#160;(capec)&#160;&#160;XML&#160;Injection</text><text class="terminal-60183283-r3" x="1464" y="410.4" textLength="12.2" clip-path="url(#terminal-60183283-line-16)">
</text><text class="terminal-60183283-r6" x="658.8" y="434.8" textLength="97.6" clip-path="url(#terminal-60183283-line-17)">CWE-1347</text><text class="terminal-60183283-r4" x="756.4" y="434.8" textLength="573.4" clip-path="url(#terminal-60183283-line-17)">&#160;&#160;(cwe)&#160;&#160;OWASP&#160;Top&#160;Ten&#160;2021&#160;Category&#160;A03:2021&#160;-</text><text class="terminal-60183283-r3" x="1464" y="434.8" textLength="12.2" clip-path="url(#terminal-60183283-line-17)">
</text><text class="terminal-60183283-r4" x="634.4" y="459.2" textLength="109.8" clip-path="url(#terminal-60183283-line-18)">Injection</text><text class="terminal-60183283-r3" x="1464" y="459.2" textLength="12.2" clip-path="url(#terminal-60183283-line-18)">
</text><text class="terminal-60183283-r6" x="658.8" y="483.6" textLength="97.6" clip-path="url(#terminal-60183283-line-19)">CWE-1440</text><text class="terminal-60183283-r4" x="756.4" y="483.6" textLength="573.4" clip-path="url(#terminal-60183283-line-19)">&#160;&#160;(cwe)&#160;&#160;OWASP&#160;Top&#160;Ten&#160;2025&#160;Category&#160;A05:2025&#160;-</text><text class="terminal-60183283-r3" x="1464" y="483.6" textLength="12.2" clip-path="url(#terminal-60183283-line-19)">
</text><text class="terminal-60183283-r4" x="634.4" y="508" textLength="109.8" clip-path="url(#terminal-60183283-line-20)">Injection</text><text class="terminal-60183283-r3" x="1464" y="508" textLength="12.2" clip-path="url(#terminal-60183283-line-20)">
</text><text class="terminal-60183283-r6" x="658.8" y="532.4" textLength="109.8" clip-path="url(#terminal-60183283-line-21)">CAPEC-134</text><text class="terminal-60183283-r4" x="768.6" y="532.4" textLength="317.2" clip-path="url(#terminal-60183283-line-21)">&#160;&#160;(capec)&#160;&#160;Email&#160;Injection</text><text class="terminal-60183283-r3" x="1464" y="532.4" textLength="12.2" clip-path="url(#terminal-60183283-line-21)">
</text><text class="terminal-60183283-r6" x="658.8" y="556.8" textLength="109.8" clip-path="url(#terminal-60183283-line-22)">CAPEC-500</text><text class="terminal-60183283-r4" x="768.6" y="556.8" textLength="341.6" clip-path="url(#terminal-60183283-line-22)">&#160;&#160;(capec)&#160;&#160;WebView&#160;Injection</text><text class="terminal-60183283-r3" x="1464" y="556.8" textLength="12.2" clip-path="url(#terminal-60183283-line-22)">
</text><text class="terminal-60183283-r6" x="658.8" y="581.2" textLength="109.8" clip-path="url(#terminal-60183283-line-23)">T1055.001</text><text class="terminal-60183283-r4" x="768.6" y="581.2" textLength="512.4" clip-path="url(#terminal-60183283-line-23)">&#160;&#160;(attack)&#160;&#160;Dynamic-link&#160;Library&#160;Injection</text><text class="terminal-60183283-r3" x="1464" y="581.2" textLength="12.2" clip-path="url(#terminal-60183283-line-23)">
</text><text class="terminal-60183283-r6" x="658.8" y="605.6" textLength="61" clip-path="url(#terminal-60183283-line-24)">T1540</text><text class="terminal-60183283-r4" x="719.8" y="605.6" textLength="317.2" clip-path="url(#terminal-60183283-line-24)">&#160;&#160;(attack)&#160;&#160;Code&#160;Injection</text><text class="terminal-60183283-r3" x="1464" y="605.6" textLength="12.2" clip-path="url(#terminal-60183283-line-24)">
</text><text class="terminal-60183283-r6" x="658.8" y="630" textLength="109.8" clip-path="url(#terminal-60183283-line-25)">CAPEC-241</text><text class="terminal-60183283-r4" x="768.6" y="630" textLength="451.4" clip-path="url(#terminal-60183283-line-25)">&#160;&#160;(capec)&#160;&#160;DEPRECATED:&#160;Code&#160;Injection</text><text class="terminal-60183283-r3" x="1464" y="630" textLength="12.2" clip-path="url(#terminal-60183283-line-25)">
</text><text class="terminal-60183283-r6" x="658.8" y="654.4" textLength="109.8" clip-path="url(#terminal-60183283-line-26)">T1055.008</text><text class="terminal-60183283-r4" x="768.6" y="654.4" textLength="378.2" clip-path="url(#terminal-60183283-line-26)">&#160;&#160;(attack)&#160;&#160;Ptrace&#160;System&#160;Calls</text><text class="terminal-60183283-r3" x="1464" y="654.4" textLength="12.2" clip-path="url(#terminal-60183283-line-26)">
</text><text class="terminal-60183283-r6" x="658.8" y="678.8" textLength="109.8" clip-path="url(#terminal-60183283-line-27)">T1631.001</text><text class="terminal-60183283-r4" x="768.6" y="678.8" textLength="378.2" clip-path="url(#terminal-60183283-line-27)">&#160;&#160;(attack)&#160;&#160;Ptrace&#160;System&#160;Calls</text><text class="terminal-60183283-r3" x="1464" y="678.8" textLength="12.2" clip-path="url(#terminal-60183283-line-27)">
</text><text class="terminal-60183283-r6" x="658.8" y="703.2" textLength="109.8" clip-path="url(#terminal-60183283-line-28)">CAPEC-254</text><text class="terminal-60183283-r4" x="768.6" y="703.2" textLength="658.8" clip-path="url(#terminal-60183283-line-28)">&#160;&#160;(capec)&#160;&#160;DEPRECATED:&#160;DTD&#160;Injection&#160;in&#160;a&#160;SOAP&#160;Message</text><text class="terminal-60183283-r3" x="1464" y="703.2" textLength="12.2" clip-path="url(#terminal-60183283-line-28)">
</text><text class="terminal-60183283-r6" x="658.8" y="727.6" textLength="109.8" clip-path="url(#terminal-60183283-line-29)">AML.T0051</text><text class="terminal-60183283-r4" x="768.6" y="727.6" textLength="378.2" clip-path="url(#terminal-60183283-line-29)">&#160;&#160;(atlas)&#160;&#160;LLM&#160;Prompt&#160;Injection</text><text class="terminal-60183283-r3" x="1464" y="727.6" textLength="12.2" clip-path="url(#terminal-60183283-line-29)">
</text><text class="terminal-60183283-r6" x="658.8" y="752" textLength="85.4" clip-path="url(#terminal-60183283-line-30)">CAPEC-6</text><text class="terminal-60183283-r4" x="744.2" y="752" textLength="353.8" clip-path="url(#terminal-60183283-line-30)">&#160;&#160;(capec)&#160;&#160;Argument&#160;Injection</text><text class="terminal-60183283-r3" x="1464" y="752" textLength="12.2" clip-path="url(#terminal-60183283-line-30)">
</text><text class="terminal-60183283-r6" x="658.8" y="776.4" textLength="109.8" clip-path="url(#terminal-60183283-line-31)">CAPEC-109</text><text class="terminal-60183283-r4" x="768.6" y="776.4" textLength="561.2" clip-path="url(#terminal-60183283-line-31)">&#160;&#160;(capec)&#160;&#160;Object&#160;Relational&#160;Mapping&#160;Injection</text><text class="terminal-60183283-r3" x="1464" y="776.4" textLength="12.2" clip-path="url(#terminal-60183283-line-31)">
</text><text class="terminal-60183283-r6" x="658.8" y="800.8" textLength="85.4" clip-path="url(#terminal-60183283-line-32)">CWE-149</text><text class="terminal-60183283-r4" x="744.2" y="800.8" textLength="610" clip-path="url(#terminal-60183283-line-32)">&#160;&#160;(cwe)&#160;&#160;Improper&#160;Neutralization&#160;of&#160;Quoting&#160;Syntax</text><text class="terminal-60183283-r3" x="1464" y="800.8" textLength="12.2" clip-path="url(#terminal-60183283-line-32)">
</text><text class="terminal-60183283-r6" x="658.8" y="825.2" textLength="97.6" clip-path="url(#terminal-60183283-line-33)">CWE-1334</text><text class="terminal-60183283-r4" x="756.4" y="825.2" textLength="597.8" clip-path="url(#terminal-60183283-line-33)">&#160;&#160;(cwe)&#160;&#160;Unauthorized&#160;Error&#160;Injection&#160;Can&#160;Degrade</text><text class="terminal-60183283-r3" x="1464" y="825.2" textLength="12.2" clip-path="url(#terminal-60183283-line-33)">
</text><text class="terminal-60183283-r4" x="634.4" y="849.6" textLength="231.8" clip-path="url(#terminal-60183283-line-34)">Hardware&#160;Redundancy</text><text class="terminal-60183283-r3" x="1464" y="849.6" textLength="12.2" clip-path="url(#terminal-60183283-line-34)">
</text><text class="terminal-60183283-r7" x="0" y="874" textLength="36.6" clip-path="url(#terminal-60183283-line-35)">&#160;/&#160;</text><text class="terminal-60183283-r4" x="36.6" y="874" textLength="85.4" clip-path="url(#terminal-60183283-line-35)">Search&#160;</text><text class="terminal-60183283-r7" x="122" y="874" textLength="61" clip-path="url(#terminal-60183283-line-35)">&#160;esc&#160;</text><text class="terminal-60183283-r4" x="183" y="874" textLength="61" clip-path="url(#terminal-60183283-line-35)">Tree&#160;</text><text class="terminal-60183283-r8" x="1317.6" y="874" textLength="12.2" clip-path="url(#terminal-60183283-line-35)">▏</text><text class="terminal-60183283-r7" x="1329.8" y="874" textLength="24.4" clip-path="url(#terminal-60183283-line-35)">^p</text><text class="terminal-60183283-r4" x="1354.2" y="874" textLength="97.6" clip-path="url(#terminal-60183283-line-35)">&#160;palette</text>
    </g>
    </g>
</svg>
